<svg width="358" height="358" viewBox="0 0 358 358" fill="none" xmlns="http://www.w3.org/2000/svg">
<g clip-path="url(#clip0_1_19)">
<path d="M199.235 357.642H109.932C109.164 354.546 108.396 351.52 107.628 348.563C107.459 347.882 107.283 347.193 107.106 346.512C106.512 344.159 105.933 341.863 105.37 339.623C105.025 338.261 104.687 336.93 104.364 335.606C104.042 334.283 103.681 332.928 103.35 331.636C103.258 331.287 103.174 330.955 103.089 330.622C103.005 330.289 102.905 329.848 102.813 329.515C102.721 329.182 102.582 328.617 102.475 328.168C102.344 327.696 102.237 327.239 102.122 326.783C101.891 325.916 101.684 325.049 101.476 324.221C101.154 322.99 100.847 321.767 100.555 320.591C100.432 320.08 100.301 319.561 100.171 319.043C99.9558 318.222 99.7485 317.417 99.5565 316.628C99.4182 316.102 99.2953 315.591 99.1725 315.08C98.6349 313.013 98.151 311.063 97.6902 309.244C97.5673 308.764 97.4521 308.292 97.3293 307.835C97.1373 307.061 96.9453 306.287 96.7609 305.56C96.6381 305.103 96.5229 304.654 96.423 304.228C96.0313 302.68 95.655 301.249 95.3555 299.995C95.2633 299.67 95.1865 299.352 95.1097 299.035C94.9024 298.214 94.7104 297.487 94.5491 296.829C94.4877 296.566 94.4262 296.308 94.3648 296.055C94.3033 295.802 94.2419 295.562 94.1805 295.335C94.1421 295.173 94.096 295.018 94.0653 294.879C94.0345 294.739 93.9501 294.445 93.904 294.259L93.8349 293.981C93.7043 293.447 93.6275 293.168 93.6275 293.168H180.826C180.826 293.168 183.699 303.153 188.299 319.236C189.228 322.51 190.234 326.04 191.317 329.794L199.235 357.642Z" fill="#365CD9"/>
<path opacity="0.4" d="M199.235 357.642H109.932C109.164 354.546 108.396 351.52 107.628 348.563C107.459 347.882 107.283 347.193 107.106 346.512C106.512 344.159 105.933 341.863 105.37 339.623C105.025 338.261 104.687 336.93 104.364 335.606C104.042 334.283 103.681 332.928 103.35 331.636C103.258 331.287 103.174 330.955 103.089 330.622C103.005 330.289 102.905 329.848 102.813 329.515C102.721 329.182 102.582 328.617 102.475 328.168C102.344 327.696 102.237 327.239 102.122 326.783C101.891 325.916 101.684 325.049 101.476 324.221C101.154 322.99 100.847 321.767 100.555 320.591C100.432 320.08 100.301 319.561 100.171 319.043C99.9558 318.222 99.7485 317.417 99.5565 316.628C99.4182 316.102 99.2953 315.591 99.1725 315.08C98.6349 313.013 98.151 311.063 97.6902 309.244C97.5673 308.764 97.4521 308.292 97.3293 307.835C97.1373 307.061 96.9453 306.287 96.7609 305.56C96.6381 305.103 96.5229 304.654 96.423 304.228C96.0313 302.68 95.655 301.249 95.3555 299.995C95.2633 299.67 95.1865 299.352 95.1097 299.035C94.9024 298.214 94.7104 297.487 94.5491 296.829C94.4877 296.566 94.4262 296.308 94.3648 296.055C94.3033 295.802 94.2419 295.562 94.1805 295.335C94.1421 295.173 94.096 295.018 94.0653 294.879C94.0345 294.739 93.9501 294.445 93.904 294.259L93.8349 293.981C93.7043 293.447 93.6275 293.168 93.6275 293.168H180.826C180.826 293.168 183.699 303.153 188.299 319.236C189.228 322.51 190.234 326.04 191.317 329.794L199.235 357.642Z" fill="black" fill-opacity="0.59"/>
<path d="M124.555 357.642H122.489C119.929 346.806 117.428 335.942 114.986 325.049C114.243 321.685 113.501 318.307 112.758 314.917C112.689 314.592 112.628 314.283 112.551 313.965C112.551 313.795 112.774 313.725 112.812 313.896C112.851 314.066 112.874 314.097 112.904 314.198C113.918 317.828 114.932 321.465 115.915 325.103C118.864 335.916 121.744 346.752 124.555 357.642Z" fill="#2B4AAE"/>
<path d="M178 293.207L174.16 312.626L171.011 328.548L165.635 355.684L165.244 357.642H109.948C109.18 354.546 108.412 351.52 107.644 348.563C107.475 347.882 107.298 347.193 107.121 346.512C106.527 344.159 105.949 341.863 105.386 339.623C105.04 338.261 104.702 336.93 104.38 335.606C104.057 334.283 103.696 332.928 103.366 331.636C103.274 331.287 103.189 330.955 103.105 330.622C103.02 330.289 102.92 329.848 102.828 329.515C102.736 329.182 102.598 328.617 102.49 328.168C102.36 327.696 102.252 327.239 102.137 326.783C101.907 325.916 101.699 325.049 101.492 324.221C101.169 322.99 100.862 321.767 100.57 320.591C100.44 320.072 100.317 319.561 100.186 319.043C99.9712 318.222 99.7638 317.417 99.5718 316.628C99.4336 316.102 99.3107 315.591 99.1878 315.08C98.6502 313.013 98.1664 311.063 97.7056 309.244C97.5827 308.764 97.4675 308.292 97.3446 307.835C97.1526 307.061 96.9606 306.287 96.7763 305.56C96.6534 305.103 96.5382 304.654 96.4384 304.228C96.0467 302.68 95.6704 301.249 95.3709 299.995C95.2787 299.67 95.2019 299.352 95.1251 299.035C94.9178 298.214 94.7258 297.487 94.5645 296.829C94.503 296.566 94.4416 296.308 94.3802 296.055C94.3187 295.802 94.2573 295.562 94.1958 295.335C94.1574 295.173 94.1114 295.018 94.0806 294.879C94.0499 294.739 93.9654 294.445 93.9194 294.259L93.8502 293.981C93.7197 293.447 93.6429 293.168 93.6429 293.168L178 293.207Z" fill="#2B4AAE"/>
<path d="M178 293.176C177.962 293.656 177.631 298.896 176.794 306.899C176.556 309.221 176.272 311.79 175.942 314.538C175.435 318.88 174.79 323.664 174.014 328.718C172.67 337.534 170.942 347.162 168.638 356.582C168.554 356.93 168.469 357.278 168.377 357.627H50.4582C50.4464 357.446 50.4464 357.265 50.4582 357.085C51.4797 343.834 59.1827 293.191 59.1827 293.191H161.281L178 293.176Z" fill="#365CD9"/>
<path opacity="0.4" d="M178 293.176C177.962 293.656 177.631 298.896 176.794 306.899C176.556 309.221 176.272 311.79 175.942 314.538C175.435 318.88 174.79 323.664 174.014 328.718C172.67 337.534 170.942 347.162 168.638 356.582C168.554 356.93 168.469 357.278 168.377 357.627H50.4582C50.4464 357.446 50.4464 357.265 50.4582 357.085C51.4797 343.834 59.1827 293.191 59.1827 293.191H161.281L178 293.176Z" fill="black" fill-opacity="0.59"/>
<path d="M167.678 303.602C167.555 307.665 167.379 311.705 167.125 315.753C166.849 320.126 166.449 324.507 165.889 328.873C165.889 329.027 165.889 329.198 165.827 329.352C165.29 333.447 164.691 337.534 163.999 341.605C163.354 345.405 162.878 349.5 161.204 353.006C160.579 354.37 159.685 355.592 158.577 356.597C158.132 356.997 157.645 357.347 157.126 357.642H150.137C149.103 357.023 148.31 356.068 147.887 354.933C147.234 353.199 147.526 351.388 147.795 349.6C148.148 347.278 148.486 344.956 148.839 342.634C149.492 338.37 150.375 334.12 151.089 329.902L151.435 327.967C152.971 319.337 154.507 310.691 156.419 302.139C156.488 301.783 156.565 301.427 156.642 301.078C156.659 301.033 156.691 300.994 156.733 300.97C156.774 300.945 156.823 300.934 156.87 300.941C156.918 300.947 156.963 300.969 156.997 301.004C157.03 301.039 157.051 301.084 157.057 301.132C156.995 301.705 156.941 302.286 156.872 302.858C156.54 306.14 156.15 309.412 155.705 312.673C155.16 316.504 154.783 320.359 154.246 324.19C154.069 325.498 153.885 326.798 153.7 328.106C152.817 334.407 151.911 340.715 150.844 346.992C150.344 349.91 148.54 355.142 152.71 356.04C153.662 356.257 154.659 356.131 155.528 355.684C157.379 354.763 158.731 352.634 159.368 350.761C160.543 347.418 160.973 343.733 161.58 340.25C162.266 336.417 162.87 332.572 163.393 328.718C164.076 323.896 164.775 319.089 165.528 314.29C165.904 311.837 166.296 309.399 166.68 306.945C166.856 305.815 167.041 304.677 167.217 303.547C167.309 303.284 167.678 303.362 167.678 303.602Z" fill="#2B4AAE"/>
<path d="M78.16 333.756C82.848 333.713 87.5124 333.081 92.0454 331.876C94.1421 331.334 96.208 330.66 98.2585 329.979C100.291 329.413 102.193 328.451 103.857 327.147C107.021 324.399 108.465 320.08 109.855 316.249C111.357 311.92 112.57 307.496 113.488 303.005C113.542 302.789 113.857 302.858 113.864 303.067C113.985 308.149 113.353 313.22 111.99 318.114C110.861 322.263 109.333 326.891 106.008 329.794C102.513 332.851 97.7593 333.927 93.2896 334.484C88.2588 335.076 83.1728 335.006 78.16 334.275C78.0918 334.275 78.0263 334.248 77.9781 334.199C77.9298 334.151 77.9027 334.085 77.9027 334.016C77.9027 333.947 77.9298 333.881 77.9781 333.832C78.0263 333.784 78.0918 333.756 78.16 333.756Z" fill="#2B4AAE"/>
<path d="M70.3725 303.137C70.1344 309.329 64.2285 344.028 63.2301 357.642H61.264C62.5005 343.85 69.3664 309.244 69.8425 303.129C69.8604 303.072 69.896 303.022 69.9443 302.987C69.9926 302.952 70.0508 302.933 70.1104 302.934C70.1699 302.935 70.2276 302.955 70.2748 302.992C70.322 303.028 70.3563 303.079 70.3725 303.137Z" fill="#2B4AAE"/>
<path d="M149.715 166.325C148.063 208.678 152.38 253.787 158.316 263.725C165.827 276.318 228.642 300.544 231.875 301.86C237.19 304.035 251.49 255.683 246.728 253.253C232.405 245.946 199.151 234.677 197.031 230.876C194.842 226.875 186.471 204.127 173.223 168.678C164.084 144.204 150.728 140.048 149.715 166.325Z" fill="#F5F5F5"/>
<path d="M254.8 296.566C251.467 297.224 251.789 298.988 257.158 301.759C262.526 304.53 286.142 310.908 283.27 319.02C280.397 327.131 247.174 317.65 238.595 312.348C230.017 307.046 217.936 295.42 217.936 295.42C224.717 295.962 241.391 295.668 254.8 296.566Z" fill="#F5F5F5"/>
<path d="M232.935 247.247C251.636 252.014 275.175 256.798 290.689 272.216C292.45 273.887 293.605 276.105 293.968 278.516C301.026 285.304 299.966 290.699 299.966 290.699C304.62 299.05 302.785 304.422 302.785 304.422C302.785 304.422 310.987 312.479 306.978 318.284C302.5 324.809 291.856 312.216 281.803 308.896C258.763 301.295 223.903 296.976 217.037 295.451L232.935 247.247Z" fill="#F5F5F5"/>
<path d="M263.248 283.826C269.983 286.202 276.665 288.354 283.047 291.635C290.051 295.235 296.187 299.886 302.554 304.461C302.593 304.487 302.641 304.498 302.688 304.491C302.734 304.484 302.777 304.46 302.807 304.424C302.838 304.388 302.854 304.341 302.852 304.294C302.851 304.246 302.832 304.201 302.8 304.167C292.57 294.043 277.372 286.365 263.356 283.516C262.972 283.447 262.872 283.71 263.248 283.826Z" fill="#2B4AAE"/>
<path d="M265.744 269.143C272.172 271.821 283.408 276.597 299.812 290.877C299.866 290.923 299.966 290.877 299.912 290.792C290.504 280.095 279.276 273.137 265.875 268.833C265.452 268.702 265.314 268.965 265.744 269.143Z" fill="#2B4AAE"/>
<path d="M267.249 261.279C278.001 266.248 284.145 270.753 293.899 278.524C293.953 278.57 294.045 278.485 293.991 278.431C283.846 268.431 279.046 265.962 267.372 260.884C266.965 260.706 266.835 261.086 267.249 261.279Z" fill="#2B4AAE"/>
<path d="M261.013 303.454C254.531 301.976 254.869 302.146 245.83 301.597C243.964 301.489 244.609 301.047 245.453 300.985C253.264 300.413 253.502 300.699 261.075 303.145C261.313 303.215 261.267 303.516 261.013 303.454Z" fill="#2B4AAE"/>
<path d="M240.208 245.768L217.844 304.739C217.844 304.739 161.473 278.059 154.238 264.151C147.004 250.242 147.027 197.772 148.954 168.446C150.882 139.119 164.66 143.623 172.762 164.661C180.865 185.698 197.223 228.361 198.759 229.77C200.295 231.178 240.208 245.768 240.208 245.768Z" fill="#365CD9"/>
<path d="M213.167 274.77C215.663 268.377 218.205 261.999 220.47 255.521C221.753 251.836 223.066 248.152 224.31 244.46C224.356 244.321 224.134 244.22 224.072 244.36C221.315 250.675 218.558 257.014 216.093 263.454C213.628 269.894 211.116 276.256 208.743 282.696C207.391 286.359 206.152 290.057 205.026 293.787C205.026 293.865 205.118 293.911 205.149 293.841C208.121 287.626 210.648 281.217 213.167 274.77Z" fill="#2B4AAE"/>
<path opacity="0.1" d="M207.123 299.437C190.403 290.923 159.507 274.205 154.261 264.151C147.027 250.219 147.042 197.765 148.977 168.446C149.922 154.204 153.654 147.935 158.193 147.672L207.123 299.437Z" fill="black" fill-opacity="0.59"/>
<path d="M188.952 304.701L49.4445 298.276C49.4445 298.276 107.459 162.447 124.931 151.023C137.05 143.097 149.73 143.283 158.408 150.86C171.894 162.594 189.044 304.585 188.952 304.701Z" fill="#365CD9"/>
<path d="M170.996 105.496C174.068 113.902 182.516 118.507 189.82 115.79C197.123 113.074 200.572 104.049 197.5 95.6663C194.428 87.2839 185.98 82.6554 178.676 85.3721C171.372 88.0889 167.916 97.0982 170.996 105.496Z" fill="#365CD9"/>
<path d="M166.895 107.625C170.32 116.975 179.697 122.098 187.838 119.072C195.979 116.046 199.796 106.007 196.371 96.6261C192.945 87.2452 183.568 82.1523 175.427 85.1864C167.286 88.2205 163.469 98.2979 166.895 107.625Z" fill="#C7C7C7" fill-opacity="0.5"/>
<path d="M149.507 185.574C149.507 185.574 129.493 161.627 115.124 160.729L101.922 170.419C101.922 170.419 97.8054 171.356 96.8147 168.686C94.3648 162.083 95.2173 146.781 109.18 138.151C121.959 130.249 141.436 132.818 157.272 138.724C172.501 144.397 185.058 156.17 179.283 165.977C173.507 175.783 149.507 185.574 149.507 185.574Z" fill="#365CD9"/>
<path opacity="0.1" d="M151.542 180.892C151.542 180.892 170.704 169.738 173.292 162.261C175.88 154.785 161.38 146.007 151.834 142.184C137.073 136.27 126.628 136.247 117.336 143.593C108.043 150.938 151.542 180.892 151.542 180.892Z" fill="black" fill-opacity="0.59"/>
<path d="M150.897 179.769C142.634 179.328 132.826 163.515 130.392 152.346C130.223 151.572 133.249 144.908 136.536 136.627C138.517 131.596 140.606 125.938 142.142 120.643L172.755 138.445C172.755 138.445 166.311 148.608 163.684 157.819C163.486 158.551 163.352 159.299 163.285 160.056C163.285 160.164 163.285 160.295 163.224 160.435C162.694 164.761 158.877 180.18 150.897 179.769Z" fill="#F5F5F5"/>
<path d="M172.762 138.43C172.762 138.43 166.303 148.569 163.692 157.819C144.254 156.124 138.141 136.743 137.703 133.67C138.179 132.447 138.701 131.054 139.239 129.583C139.377 129.219 139.508 128.848 139.638 128.469C140.291 126.588 140.952 124.599 141.574 122.671C141.574 122.625 141.574 122.578 141.612 122.532C141.812 121.897 142.012 121.27 142.211 120.667L172.762 138.43Z" fill="#2B4AAE"/>
<path d="M151.542 180.892C151.542 180.892 136.712 148.933 114.863 143.794L115.124 160.729C115.124 160.729 128.318 162.045 149.507 185.574L151.542 180.892Z" fill="#365CD9"/>
<path d="M109.126 160.458C113.227 160.342 117.167 161.642 120.853 163.213C124.537 164.871 128.021 166.949 131.236 169.405C134.477 171.816 137.556 174.441 140.452 177.261L144.707 181.627L148.762 186.193L149.215 186.704L149.799 186.472C154.153 184.725 158.382 182.676 162.456 180.342C164.501 179.21 166.476 177.954 168.369 176.58C170.259 175.195 178.092 169.158 180.043 164.39C176.971 168.895 165.988 177.161 161.88 179.243C159.821 180.272 157.709 181.209 155.582 182.099C153.455 182.989 151.327 183.887 149.185 184.669L150.221 184.947L146.174 180.249C144.761 178.74 143.317 177.254 141.858 175.783C140.399 174.313 138.786 172.974 137.25 171.642C135.714 170.311 134.024 169.034 132.273 167.912C128.873 165.518 125.182 163.575 121.291 162.13C120.331 161.751 119.325 161.472 118.334 161.17C117.343 160.868 116.322 160.69 115.3 160.543C113.262 160.156 111.174 160.128 109.126 160.458Z" fill="#2B4AAE"/>
<path d="M101.922 170.419C104.324 169.103 106.634 167.621 108.834 165.984C111.051 164.377 113.157 162.622 115.139 160.729C112.737 162.049 110.428 163.534 108.227 165.172C106.011 166.776 103.904 168.529 101.922 170.419Z" fill="#2B4AAE"/>
<path d="M143.056 174.63C141.141 181.468 139.815 188.46 139.093 195.528C138.556 200.466 138.886 218.376 144.392 218.222C149.899 218.067 142.027 205.838 141.32 196.333C140.552 186.689 143.663 180.203 144.484 174.661L143.056 174.63Z" fill="#2B4AAE"/>
<path d="M162.317 177.331C163.48 184.259 164.231 191.25 164.568 198.268C164.783 202.765 163.477 218.957 158.493 218.5C153.508 218.044 161.334 207.417 162.54 198.864C163.761 190.18 161.48 182.378 161.004 177.292L162.317 177.331Z" fill="#2B4AAE"/>
<path d="M141.351 83.0735C135.315 94.3739 134.723 130.396 141.674 139.862C151.757 153.577 171.695 158.709 184.129 145.706C196.179 133.105 196.125 86.1076 188.038 77.1833C176.126 63.9944 150.26 66.386 141.351 83.0735Z" fill="#F5F5F5"/>
<path d="M167.839 113.902C167.839 113.809 167.64 114.01 167.64 114.111C167.64 116.588 167.171 119.413 164.913 120.14C164.844 120.14 164.852 120.287 164.913 120.28C167.655 120.009 168.208 116.247 167.839 113.902Z" fill="#263238"/>
<path d="M165.758 111.232C161.834 110.759 161.15 118.708 164.821 119.15C168.492 119.591 169.053 111.626 165.758 111.232Z" fill="#263238"/>
<path d="M181.955 115.481C181.955 115.388 182.132 115.612 182.124 115.713C181.848 118.167 181.94 121.03 184.083 122.029C184.152 122.029 184.129 122.184 184.083 122.168C181.387 121.557 181.302 117.756 181.955 115.481Z" fill="#263238"/>
<path d="M184.344 113.081C188.299 113.081 187.961 121.085 184.298 121.061C180.634 121.038 181.072 113.066 184.344 113.081Z" fill="#263238"/>
<path d="M162.755 108.507C163.819 108.709 164.894 108.854 165.973 108.94C167.21 109.095 168.185 109.351 169.345 108.755C169.655 108.552 169.89 108.251 170.013 107.9C170.137 107.549 170.142 107.166 170.028 106.812C169.444 105.326 167.978 104.761 166.495 104.49C165.006 104.192 163.461 104.468 162.164 105.264C160.797 106.038 161.327 108.174 162.755 108.507Z" fill="#263238"/>
<path d="M187.454 107.841C186.412 107.535 185.386 107.173 184.382 106.758C183.207 106.332 182.232 106.115 181.456 105.055C181.269 104.733 181.194 104.357 181.243 103.987C181.291 103.617 181.461 103.274 181.725 103.012C182.908 101.951 184.474 102.114 185.903 102.57C187.361 102.984 188.617 103.927 189.428 105.218C190.288 106.549 188.883 108.197 187.454 107.841Z" fill="#263238"/>
<path d="M163.408 135.582C163.946 136.209 164.468 137.052 165.343 137.199C166.255 137.255 167.168 137.118 168.024 136.797C168.041 136.792 168.059 136.792 168.075 136.798C168.092 136.804 168.106 136.815 168.116 136.829C168.127 136.844 168.132 136.861 168.132 136.879C168.132 136.897 168.126 136.914 168.116 136.928C167.729 137.386 167.225 137.728 166.66 137.919C166.094 138.11 165.488 138.142 164.906 138.012C164.42 137.842 163.995 137.53 163.685 137.117C163.375 136.704 163.193 136.207 163.162 135.69C163.147 135.527 163.339 135.489 163.408 135.582Z" fill="#263238"/>
<path d="M167.071 128.484C167.611 129.511 168.357 130.415 169.261 131.137C170.166 131.859 171.209 132.384 172.324 132.679C173.294 132.952 174.298 133.082 175.304 133.066C175.496 133.086 175.689 133.086 175.88 133.066C176.062 133.081 176.244 133.081 176.426 133.066C176.558 133.052 176.681 132.994 176.777 132.902C176.873 132.81 176.936 132.688 176.956 132.555C176.967 132.471 176.967 132.385 176.956 132.3V132.083C177.163 130.187 177.217 127.292 177.217 127.292C177.877 127.695 181.249 129.575 181.272 128.577C181.456 120.334 181.663 111.17 180.112 102.927C180.102 102.873 180.074 102.825 180.033 102.79C179.991 102.756 179.939 102.737 179.885 102.737C179.832 102.737 179.779 102.756 179.738 102.79C179.697 102.825 179.669 102.873 179.659 102.927C179.175 110.837 180.074 118.786 179.713 126.743C178.63 126.224 176.871 125.28 175.873 125.195C175.604 125.249 175.873 130.798 175.711 131.642C175.717 131.673 175.717 131.704 175.711 131.735C172.516 131.874 170.212 130.721 167.317 128.321C167.148 128.12 166.941 128.275 167.071 128.484Z" fill="#263238"/>
<path d="M174.06 132.749C172.864 133.903 171.394 134.729 169.79 135.148C168.909 135.345 167.988 135.261 167.156 134.908C165.343 134.134 165.566 132.369 166.134 130.93C166.446 130.168 166.846 129.446 167.325 128.778C169.093 130.791 171.453 132.182 174.06 132.749Z" fill="#2B4AAE"/>
<path d="M169.79 135.148C168.909 135.345 167.988 135.261 167.156 134.908C165.343 134.134 165.566 132.369 166.134 130.93C168.124 131.448 169.921 133.128 169.79 135.148Z" fill="#B8B8B8"/>
<path d="M138.748 129.459C138.748 129.459 135.1 128.592 134.485 126.054C133.871 123.515 137.296 117.385 131.413 113.128C129.386 111.657 127.719 110.752 126.974 108.67C125.592 104.8 127.88 102.191 127.535 99.7531C127.105 96.7423 122.005 95.3955 122.12 89.6215C122.266 81.9511 128.94 80.7824 130.415 78.3443C131.889 75.9062 130.899 71.9123 135.023 67.6708C138.863 63.7621 144.285 65.7977 147.81 64.4742C151.573 63.0578 151.012 57.2528 157.54 55.2404C162.294 53.7775 167.256 58.7776 170.512 58.3364C175.665 57.6398 176.387 52.7713 183.023 52.6397C190.434 52.5004 198.521 66.0532 199.297 71.03C200.157 76.595 196.056 79.2653 196.624 82.7716C197.438 87.8103 201.7 88.1044 201.347 92.4388C200.994 96.7732 197.983 98.3831 197.507 101.084C196.9 104.738 197.438 105.597 196.862 108.762C196.364 110.855 195.107 112.683 193.337 113.886C193.337 113.886 194.22 97.2376 190.127 85.5425C188.767 81.6725 186.609 78.7622 185.373 78.8629C183.752 78.9944 183.783 85.0549 181.057 85.1477C178.33 85.2406 173.523 78.1817 169.537 79.8613C164.161 82.1059 165.328 90.2948 159.783 92.2066C154.238 94.1184 151.65 92.2066 149.761 94.5286C147.411 97.3614 149.907 100.055 149.492 105.713C149.116 110.814 147.779 112.393 147.779 112.393L144.054 112.485C144.054 112.485 140.161 108.283 138.678 108.701C137.196 109.119 138.748 129.459 138.748 129.459Z" fill="#263238"/>
<path d="M131.958 74.691C130.899 80.4341 123.288 81.7267 121.506 86.9976C120.369 91.3785 122.581 94.5751 125.837 97.2764C126.805 98.2129 128.141 99.4049 127.796 100.914C127.796 99.4281 126.467 98.5922 125.407 97.8182C123.103 96.2237 120.669 94.0875 120.116 91.0998C119.752 89.6225 119.806 88.0718 120.274 86.6242C120.741 85.1766 121.601 83.8901 122.758 82.9109C125.753 80.0394 130.361 78.801 131.974 74.6988L131.958 74.691Z" fill="#2B4AAE"/>
<path d="M197.423 85.14C199.189 86.8815 202.031 87.6787 203.006 90.2639C204.504 94.3893 201.862 96.7887 199.005 99.1726C198.375 99.6781 197.89 100.343 197.599 101.1C197.648 100.247 197.968 99.4324 198.513 98.7779C199.85 96.959 201.992 95.1865 202.084 92.911C202.153 92.1753 202.064 91.4335 201.824 90.7353C201.585 90.0371 201.199 89.3987 200.694 88.863C199.665 87.7329 198.175 86.7035 197.423 85.1787V85.14Z" fill="#2B4AAE"/>
<path d="M145.636 115.736C145.636 115.736 138.724 103.615 133.348 106.007C127.972 108.399 132.481 125.481 138.317 128.275C139.041 128.688 139.839 128.948 140.665 129.041C141.491 129.133 142.327 129.056 143.123 128.814C143.918 128.571 144.657 128.169 145.293 127.631C145.93 127.092 146.452 126.43 146.827 125.682L145.636 115.736Z" fill="#F5F5F5"/>
<path d="M134.739 110.868C134.718 110.864 134.697 110.869 134.68 110.88C134.662 110.891 134.65 110.908 134.644 110.928C134.638 110.948 134.64 110.97 134.649 110.989C134.658 111.007 134.673 111.022 134.692 111.03C138.771 113.136 140.652 117.284 141.858 121.526C140.737 119.831 139.101 118.817 136.866 120.14C136.751 120.21 136.866 120.396 136.966 120.38C137.73 120.207 138.53 120.276 139.253 120.58C139.977 120.884 140.589 121.406 141.005 122.075C141.692 123.198 142.259 124.392 142.695 125.636C142.864 126.038 143.563 125.891 143.463 125.442V125.342C144.008 119.916 140.483 111.928 134.739 110.868Z" fill="#2B4AAE"/>
<path d="M166.257 347.766C165.835 347.379 155.966 338.215 152.157 325.065C150.89 320.691 152.065 309.321 153.547 294.925C155.405 276.96 157.709 254.6 155.467 240.343C154.154 232.007 147.434 213.074 141.497 196.372C137.695 185.659 134.408 176.402 133.218 171.813C129.485 157.362 131.682 137.246 132.557 129.668C132.627 128.979 132.696 128.407 132.742 127.965L134.278 128.12C134.232 128.569 134.163 129.15 134.086 129.839C133.256 137.339 131.052 157.254 134.716 171.426C135.883 175.946 139.162 185.172 142.956 195.853C148.908 212.618 155.659 231.62 156.995 240.103C159.299 254.561 156.949 277.03 155.083 295.057C153.677 308.718 152.456 320.521 153.639 324.6C157.333 337.332 167.194 346.497 167.294 346.59L166.257 347.766Z" fill="#2B4AAE"/>
<path d="M126.221 116.503C126.221 116.503 114.84 100.488 114.026 88.236C113.119 74.6059 131.513 57.067 151.496 61.4788C151.496 61.4788 123.894 63.3984 121.03 84.8769C119.824 93.9249 132.028 113.515 132.028 113.515L126.221 116.503Z" fill="#C7C7C7" fill-opacity="0.5"/>
<path d="M147.457 109.196C151.588 117.981 148.739 128.058 141.09 131.712C133.441 135.365 123.902 131.201 119.77 122.424C115.638 113.646 118.495 103.561 126.137 99.908C133.779 96.2547 143.325 100.419 147.457 109.196Z" fill="#B8B8B8"/>
<path d="M143.187 110.628C146.904 118.523 144.339 127.578 137.465 130.86C130.591 134.142 122.013 130.404 118.303 122.509C114.594 114.614 117.151 105.558 124.025 102.276C130.899 98.9946 139.477 102.733 143.187 110.628Z" fill="#365CD9"/>
<path d="M40.3053 279.886C54.3597 277.742 91.7613 241.186 116.614 197.014C120.454 190.172 86.6617 157.068 81.2857 163.469C74.4813 171.534 36.112 216.333 34.6067 218.965C21.8886 241.116 30.7667 281.341 40.3053 279.886Z" fill="#F5F5F5"/>
<path d="M72.4077 173.647C72.4077 173.647 76.839 154.537 80.8557 142.068C83.0906 135.102 87.975 123.492 91.9379 119.173C97.8669 112.663 126.774 89.2422 132.557 96.1772C137.795 102.462 110.424 119.397 110.424 119.397C110.424 119.397 136.536 99.8382 141.466 108.561C146.397 117.284 112.935 132.354 112.935 132.354C112.935 132.354 140.222 112.865 143.885 122.687C146.658 130.102 117.121 145.411 117.121 145.411C117.121 145.411 140.683 128.825 143.862 136.325C147.372 144.622 120.984 160.473 120.984 160.473C125.868 180.922 119.893 192.672 114.655 200.52C113.388 202.378 72.4077 173.647 72.4077 173.647Z" fill="#F5F5F5"/>
<path d="M100.954 125.589C103.942 123.182 106.945 120.721 110.132 118.623C113.319 116.526 116.583 114.467 119.955 112.64C128.226 108.167 134.093 106.665 133.779 106.804C125.438 109.9 113.91 117.393 110.739 119.529C107.567 121.665 104.264 123.623 101.085 125.721C100.947 125.767 100.885 125.643 100.954 125.589Z" fill="#2B4AAE"/>
<path d="M108.388 137.331C112.336 134.421 116.145 131.386 120.216 128.647C124.286 125.907 128.349 123.701 132.58 121.27C132.903 121.085 132.895 121.317 132.58 121.518C128.449 124.126 124.831 126.851 120.738 129.498C116.644 132.145 112.436 134.645 108.45 137.431C108.437 137.435 108.424 137.434 108.412 137.429C108.4 137.424 108.389 137.415 108.383 137.404C108.376 137.393 108.373 137.379 108.374 137.366C108.375 137.353 108.38 137.341 108.388 137.331Z" fill="#2B4AAE"/>
<path d="M112.973 148.562C118.772 143.801 125.438 140.133 132.066 136.688C132.396 136.51 132.35 136.82 132.028 137.013C125.607 140.845 120.508 143.801 113.135 148.771C113.02 148.848 112.851 148.662 112.973 148.562Z" fill="#2B4AAE"/>
<path d="M79.0201 148.089C80.3488 143.948 81.7465 139.831 83.2825 135.76C85.2717 130.713 87.1225 125.489 90.1331 120.945C92.2059 118.404 94.4872 116.042 96.9529 113.886C103.412 108.074 110.247 102.64 117.827 98.3367C121.375 96.3862 130.683 91.8815 133.656 96.3475C136.275 101.835 123.288 110.682 119.617 113.995L118.849 112.826C121.912 111.025 125.097 109.443 128.379 108.089C132.089 106.735 138.364 104.111 141.689 107.524C142.049 107.945 142.313 108.441 142.462 108.975C142.612 109.51 142.645 110.071 142.557 110.62C141.528 115.581 135.645 119.784 131.805 122.648L131.121 121.317C132.491 120.822 133.889 120.408 135.307 120.078C138.678 119.204 145.222 118.592 144.477 123.948C143.563 127.702 140.322 130.14 137.657 132.617C135.484 134.498 133.226 136.255 131.075 138.097L130.307 136.959C133.479 135.574 141.566 131.766 144.131 135.411C145.137 136.89 144.953 138.933 144.354 140.465C140.698 148.979 128.994 156.371 121.252 160.876L121.452 160.342C123.475 167.685 123.738 175.407 122.22 182.873C120.749 190.306 117.595 197.296 113.004 203.299C119.647 194.134 122.966 182.947 122.404 171.611C122.253 167.744 121.6 163.914 120.461 160.218C124.12 158.121 127.644 155.794 131.014 153.252C135.676 149.552 140.76 145.512 143.125 139.939C145.744 131.495 134.493 136.433 130.837 138.128L126.229 140.349C129.493 137.462 133.418 134.281 136.682 131.495C138.74 129.668 140.913 127.749 142.319 125.403C143.855 122.725 142.864 120.759 139.631 120.891C135.407 120.953 130.484 123.105 126.467 124.459C130.576 121.549 135.422 118.376 138.678 114.529C140.66 112.354 142.787 108.422 138.678 107.462C135.445 106.936 131.951 108.236 128.894 109.405C125.675 110.717 122.552 112.256 119.547 114.01L118.779 112.841C122.028 109.939 134.278 101.456 132.527 96.928C130.038 93.6772 121.36 97.702 118.395 99.3119C110.877 103.453 103.988 108.793 97.5289 114.467C95.0738 116.561 92.7858 118.846 90.6861 121.301C87.6141 125.721 85.6864 130.868 83.6128 135.845C82.0153 139.875 80.4947 143.943 79.0509 148.051L79.0201 148.089Z" fill="#2B4AAE"/>
<path d="M74.8653 162.254L105.163 228.663C105.163 228.663 53.4995 278.64 39.568 282.673C23.44 287.317 15.7984 245.428 33.424 216.588L74.8653 162.254Z" fill="#365CD9"/>
<path d="M90.7398 231.38C77.991 208.353 70.288 186.449 68.2374 182.014C68.1376 181.805 68.4832 181.673 68.5754 181.89C70.3648 186.348 82.6912 210.737 91.1085 231.24C91.216 231.472 90.8627 231.596 90.7398 231.38Z" fill="#2B4AAE"/>
<path d="M102.037 220.342C102 220.259 101.933 220.194 101.848 220.162C101.764 220.129 101.67 220.131 101.588 220.168C101.505 220.205 101.441 220.274 101.408 220.359C101.376 220.443 101.378 220.538 101.415 220.621C102.41 223.023 103.281 225.474 104.026 227.966C104.026 228.253 95.4016 236.364 92.56 239.143C86.928 244.643 81.1859 250.033 75.3337 255.312C69.4816 260.59 63.4861 265.787 57.3472 270.9C54.5363 273.222 51.7638 275.652 48.7917 277.765C46.1267 279.654 43.1545 281.295 39.8752 281.69C34.0384 282.394 28.263 278.238 26.32 272.781C26.0727 272.082 25.8902 271.362 25.7747 270.629C25.7747 270.567 25.6518 270.56 25.6518 270.629C25.7977 276.821 30.7974 282.022 36.7341 283.013C43.8765 284.159 50.0742 278.895 55.2121 274.669C61.5661 269.468 67.8022 264.133 73.9206 258.663C80.039 253.194 86.0601 247.569 91.984 241.79C94.9177 238.942 105.508 228.315 105.624 228.036C105.739 227.757 102.506 221.318 102.037 220.342Z" fill="#2B4AAE"/>
<path d="M9.37024 357.712C112.935 357.24 229.103 357.232 332.698 357.712C229.133 358.192 112.966 358.184 9.37024 357.712Z" fill="#2B4AAE"/>
<path d="M26.0896 357.712L329.91 357.712V347.534L26.0896 347.534V357.712Z" fill="#2B4AAE"/>
<path d="M21.4509 347.534L334.557 347.534V330.668L21.4509 330.668V347.534Z" fill="#365CD9"/>
<path d="M40.9658 322.464H315.034L334.557 330.668H21.4432L40.9658 322.464Z" fill="#365CD9"/>
<path d="M36.3578 357.712H122.919V334.453H36.3578V357.712Z" fill="#2B4AAE"/>
<path d="M41.8105 342.735C41.8242 343.344 42.0158 343.936 42.3615 344.436C42.7073 344.935 43.1917 345.321 43.7541 345.545C44.3164 345.769 44.9318 345.82 45.5231 345.693C46.1144 345.566 46.6553 345.266 47.078 344.83C47.5008 344.394 47.7866 343.843 47.8996 343.244C48.0126 342.645 47.9479 342.027 47.7135 341.465C47.4791 340.903 47.0854 340.424 46.5819 340.087C46.0783 339.749 45.4872 339.569 44.8825 339.569C44.0589 339.579 43.273 339.918 42.6971 340.512C42.1212 341.105 41.8024 341.905 41.8105 342.735Z" fill="#C7C7C7" fill-opacity="0.5"/>
<path d="M43.408 342.735C43.42 343.026 43.5169 343.308 43.6864 343.544C43.8559 343.78 44.0906 343.961 44.3613 344.064C44.6321 344.166 44.9268 344.187 45.2089 344.122C45.4909 344.057 45.7479 343.91 45.9477 343.699C46.1475 343.488 46.2813 343.223 46.3325 342.936C46.3838 342.649 46.3501 342.353 46.2357 342.086C46.1214 341.818 45.9314 341.59 45.6894 341.43C45.4474 341.27 45.1642 341.186 44.8749 341.187C44.6769 341.189 44.4813 341.231 44.2997 341.31C44.1181 341.389 43.954 341.505 43.8173 341.649C43.6806 341.793 43.5739 341.964 43.5036 342.15C43.4333 342.337 43.4008 342.536 43.408 342.735Z" fill="#2B4AAE"/>
<path d="M43.408 351.063C43.42 351.354 43.5169 351.636 43.6864 351.872C43.8559 352.108 44.0906 352.289 44.3613 352.392C44.6321 352.495 44.9268 352.515 45.2089 352.45C45.4909 352.385 45.7479 352.238 45.9477 352.028C46.1475 351.817 46.2813 351.551 46.3325 351.264C46.3838 350.977 46.3501 350.682 46.2357 350.414C46.1214 350.146 45.9314 349.918 45.6894 349.758C45.4474 349.598 45.1642 349.514 44.8749 349.515C44.6769 349.517 44.4813 349.559 44.2997 349.638C44.1181 349.718 43.954 349.833 43.8173 349.977C43.6806 350.121 43.5739 350.292 43.5036 350.478C43.4333 350.665 43.4008 350.864 43.408 351.063Z" fill="#2B4AAE"/>
<path d="M52.2016 342.735C52.2151 343.024 52.3125 343.303 52.4817 343.536C52.6509 343.77 52.8844 343.949 53.1534 344.05C53.4223 344.151 53.7148 344.171 53.9947 344.106C54.2745 344.042 54.5294 343.895 54.7277 343.686C54.926 343.477 55.059 343.214 55.1102 342.929C55.1614 342.644 55.1286 342.351 55.0158 342.085C54.9031 341.818 54.7153 341.592 54.4758 341.432C54.2363 341.272 53.9556 341.187 53.6685 341.187C53.4705 341.189 53.2749 341.231 53.0933 341.31C52.9117 341.389 52.7477 341.505 52.6109 341.649C52.4742 341.793 52.3675 341.964 52.2972 342.15C52.2269 342.337 52.1944 342.536 52.2016 342.735Z" fill="#2B4AAE"/>
<path d="M50.6042 351.063C50.6178 351.672 50.8094 352.264 51.1551 352.764C51.5009 353.264 51.9853 353.65 52.5477 353.873C53.11 354.097 53.7254 354.148 54.3167 354.021C54.908 353.894 55.4489 353.594 55.8716 353.158C56.2944 352.723 56.5802 352.171 56.6932 351.572C56.8062 350.974 56.7415 350.355 56.5071 349.793C56.2727 349.231 55.879 348.752 55.3755 348.415C54.8719 348.078 54.2808 347.898 53.6762 347.897C52.8526 347.908 52.0666 348.247 51.4907 348.84C50.9148 349.434 50.596 350.233 50.6042 351.063Z" fill="#365CD9"/>
<path d="M52.2016 351.063C52.2151 351.352 52.3125 351.631 52.4817 351.865C52.6509 352.098 52.8844 352.277 53.1534 352.378C53.4223 352.48 53.7148 352.499 53.9947 352.434C54.2745 352.37 54.5294 352.224 54.7277 352.014C54.926 351.805 55.059 351.542 55.1102 351.257C55.1614 350.973 55.1286 350.679 55.0158 350.413C54.9031 350.147 54.7153 349.92 54.4758 349.76C54.2363 349.601 53.9556 349.515 53.6685 349.515C53.4705 349.517 53.2749 349.559 53.0933 349.638C52.9117 349.718 52.7477 349.833 52.6109 349.977C52.4742 350.121 52.3675 350.292 52.2972 350.478C52.2269 350.665 52.1944 350.864 52.2016 351.063Z" fill="#2B4AAE"/>
<path d="M59.3978 342.735C59.4114 343.344 59.603 343.936 59.9487 344.436C60.2945 344.935 60.7789 345.321 61.3413 345.545C61.9036 345.769 62.519 345.82 63.1103 345.693C63.7016 345.566 64.2425 345.266 64.6652 344.83C65.088 344.394 65.3738 343.843 65.4868 343.244C65.5998 342.645 65.5351 342.027 65.3007 341.465C65.0663 340.903 64.6726 340.424 64.1691 340.087C63.6655 339.749 63.0744 339.569 62.4698 339.569C62.0604 339.569 61.6552 339.651 61.278 339.811C60.9007 339.971 60.5589 340.206 60.2727 340.501C59.9865 340.795 59.7617 341.145 59.6115 341.529C59.4612 341.912 59.3885 342.322 59.3978 342.735Z" fill="#C7C7C7" fill-opacity="0.5"/>
<path d="M60.9875 342.735C60.9996 343.026 61.0962 343.307 61.2653 343.543C61.4345 343.779 61.6688 343.96 61.9391 344.063C62.2094 344.166 62.5037 344.187 62.7856 344.123C63.0675 344.058 63.3244 343.912 63.5245 343.702C63.7247 343.492 63.8591 343.227 63.9112 342.941C63.9633 342.654 63.9307 342.359 63.8176 342.091C63.7044 341.823 63.5155 341.594 63.2746 341.434C63.0336 341.273 62.7511 341.187 62.4621 341.187C62.2638 341.189 62.0679 341.231 61.8858 341.31C61.7038 341.389 61.5393 341.504 61.4019 341.649C61.2646 341.793 61.1572 341.963 61.086 342.15C61.0149 342.336 60.9814 342.535 60.9875 342.735Z" fill="#2B4AAE"/>
<path d="M60.9875 351.063C60.9996 351.354 61.0962 351.635 61.2653 351.871C61.4345 352.107 61.6688 352.288 61.9391 352.391C62.2094 352.494 62.5037 352.515 62.7856 352.451C63.0675 352.387 63.3244 352.24 63.5245 352.03C63.7247 351.82 63.8591 351.556 63.9112 351.269C63.9633 350.983 63.9307 350.687 63.8176 350.419C63.7044 350.151 63.5155 349.923 63.2746 349.762C63.0336 349.601 62.7511 349.515 62.4621 349.515C62.2638 349.517 62.0679 349.559 61.8858 349.638C61.7038 349.717 61.5393 349.833 61.4019 349.977C61.2646 350.121 61.1572 350.291 61.086 350.478C61.0149 350.664 60.9814 350.863 60.9875 351.063Z" fill="#2B4AAE"/>
<path d="M72.185 342.735C72.1986 343.344 72.3902 343.936 72.7359 344.436C73.0817 344.935 73.5661 345.321 74.1285 345.545C74.6908 345.769 75.3062 345.82 75.8975 345.693C76.4888 345.566 77.0297 345.266 77.4524 344.83C77.8752 344.394 78.161 343.843 78.274 343.244C78.387 342.645 78.3223 342.027 78.0879 341.465C77.8535 340.903 77.4598 340.424 76.9563 340.087C76.4527 339.749 75.8616 339.569 75.257 339.569C74.8476 339.569 74.4425 339.651 74.0652 339.811C73.6879 339.971 73.3461 340.206 73.0599 340.501C72.7737 340.795 72.5489 341.145 72.3986 341.529C72.2484 341.912 72.1757 342.322 72.185 342.735Z" fill="#365CD9"/>
<path d="M73.7747 342.735C73.7867 343.026 73.8833 343.307 74.0525 343.543C74.2217 343.779 74.456 343.96 74.7262 344.063C74.9965 344.166 75.2909 344.187 75.5728 344.123C75.8546 344.058 76.1116 343.912 76.3117 343.702C76.5118 343.492 76.6463 343.227 76.6984 342.941C76.7505 342.654 76.7179 342.359 76.6047 342.091C76.4915 341.823 76.3027 341.594 76.0617 341.434C75.8208 341.273 75.5382 341.187 75.2493 341.187C75.051 341.189 74.855 341.231 74.673 341.31C74.4909 341.389 74.3264 341.504 74.1891 341.649C74.0518 341.793 73.9444 341.963 73.8732 342.15C73.802 342.336 73.7686 342.535 73.7747 342.735Z" fill="#2B4AAE"/>
<path d="M73.7747 351.063C73.7867 351.354 73.8833 351.635 74.0525 351.871C74.2217 352.107 74.456 352.288 74.7262 352.391C74.9965 352.494 75.2909 352.515 75.5728 352.451C75.8546 352.387 76.1116 352.24 76.3117 352.03C76.5118 351.82 76.6463 351.556 76.6984 351.269C76.7505 350.983 76.7179 350.687 76.6047 350.419C76.4915 350.151 76.3027 349.923 76.0617 349.762C75.8208 349.601 75.5382 349.515 75.2493 349.515C75.051 349.517 74.855 349.559 74.673 349.638C74.4909 349.717 74.3264 349.833 74.1891 349.977C74.0518 350.121 73.9444 350.291 73.8732 350.478C73.802 350.664 73.7686 350.863 73.7747 351.063Z" fill="#2B4AAE"/>
<path d="M80.9709 342.735C80.9845 343.344 81.1762 343.936 81.5219 344.436C81.8676 344.935 82.352 345.321 82.9144 345.545C83.4768 345.769 84.0922 345.82 84.6835 345.693C85.2747 345.566 85.8156 345.266 86.2384 344.83C86.6611 344.394 86.9469 343.843 87.0599 343.244C87.173 342.645 87.1082 342.027 86.8738 341.465C86.6394 340.903 86.2458 340.424 85.7422 340.087C85.2386 339.749 84.6475 339.569 84.0429 339.569C83.2193 339.579 82.4333 339.918 81.8574 340.512C81.2815 341.105 80.9627 341.905 80.9709 342.735Z" fill="#365CD9"/>
<path d="M82.5683 342.735C82.5804 343.026 82.677 343.307 82.8461 343.543C83.0153 343.779 83.2496 343.96 83.5199 344.063C83.7901 344.166 84.0845 344.187 84.3664 344.123C84.6482 344.058 84.9052 343.912 85.1053 343.702C85.3054 343.492 85.4399 343.227 85.492 342.941C85.5441 342.654 85.5115 342.359 85.3983 342.091C85.2852 341.823 85.0963 341.594 84.8553 341.434C84.6144 341.273 84.3318 341.187 84.0429 341.187C83.8446 341.189 83.6487 341.231 83.4666 341.31C83.2846 341.389 83.12 341.504 82.9827 341.649C82.8454 341.793 82.738 341.963 82.6668 342.15C82.5957 342.336 82.5622 342.535 82.5683 342.735Z" fill="#2B4AAE"/>
<path d="M82.5683 351.063C82.5804 351.354 82.677 351.635 82.8461 351.871C83.0153 352.107 83.2496 352.288 83.5199 352.391C83.7901 352.494 84.0845 352.515 84.3664 352.451C84.6482 352.387 84.9052 352.24 85.1053 352.03C85.3054 351.82 85.4399 351.556 85.492 351.269C85.5441 350.983 85.5115 350.687 85.3983 350.419C85.2852 350.151 85.0963 349.923 84.8553 349.762C84.6144 349.601 84.3318 349.515 84.0429 349.515C83.8446 349.517 83.6487 349.559 83.4666 349.638C83.2846 349.717 83.12 349.833 82.9827 349.977C82.8454 350.121 82.738 350.291 82.6668 350.478C82.5957 350.664 82.5622 350.863 82.5683 351.063Z" fill="#2B4AAE"/>
<path d="M117.604 339.105H99.1187V341.218H117.604V339.105Z" fill="#2B4AAE"/>
<path d="M117.604 343.788H99.1187V345.901H117.604V343.788Z" fill="#2B4AAE"/>
<path d="M117.604 348.478H99.1187V350.591H117.604V348.478Z" fill="#2B4AAE"/>
<path d="M160.09 357.712H195.91V334.453H160.09V357.712Z" fill="#2B4AAE"/>
<path d="M166.142 342.735C166.156 343.344 166.347 343.936 166.693 344.436C167.039 344.935 167.523 345.321 168.086 345.545C168.648 345.769 169.263 345.82 169.855 345.693C170.446 345.566 170.987 345.266 171.41 344.83C171.832 344.394 172.118 343.843 172.231 343.244C172.344 342.645 172.279 342.027 172.045 341.465C171.811 340.903 171.417 340.424 170.913 340.087C170.41 339.749 169.819 339.569 169.214 339.569C168.39 339.579 167.605 339.918 167.029 340.512C166.453 341.105 166.134 341.905 166.142 342.735Z" fill="#C7C7C7" fill-opacity="0.5"/>
<path d="M167.74 342.735C167.752 343.026 167.848 343.308 168.018 343.544C168.187 343.78 168.422 343.961 168.693 344.064C168.964 344.166 169.258 344.187 169.54 344.122C169.822 344.057 170.079 343.91 170.279 343.699C170.479 343.488 170.613 343.223 170.664 342.936C170.715 342.649 170.682 342.353 170.567 342.086C170.453 341.818 170.263 341.59 170.021 341.43C169.779 341.27 169.496 341.186 169.206 341.187C169.008 341.189 168.813 341.231 168.631 341.31C168.45 341.389 168.286 341.505 168.149 341.649C168.012 341.793 167.905 341.964 167.835 342.15C167.765 342.337 167.732 342.536 167.74 342.735Z" fill="#2B4AAE"/>
<path d="M167.74 351.063C167.752 351.354 167.848 351.636 168.018 351.872C168.187 352.108 168.422 352.289 168.693 352.392C168.964 352.495 169.258 352.515 169.54 352.45C169.822 352.385 170.079 352.238 170.279 352.028C170.479 351.817 170.613 351.551 170.664 351.264C170.715 350.977 170.682 350.682 170.567 350.414C170.453 350.146 170.263 349.918 170.021 349.758C169.779 349.598 169.496 349.514 169.206 349.515C169.008 349.517 168.813 349.559 168.631 349.638C168.45 349.718 168.286 349.833 168.149 349.977C168.012 350.121 167.905 350.292 167.835 350.478C167.765 350.665 167.732 350.864 167.74 351.063Z" fill="#2B4AAE"/>
<path d="M176.533 342.735C176.547 343.024 176.644 343.303 176.813 343.536C176.982 343.77 177.216 343.949 177.485 344.05C177.754 344.151 178.046 344.171 178.326 344.106C178.606 344.042 178.861 343.895 179.059 343.686C179.257 343.477 179.39 343.214 179.442 342.929C179.493 342.644 179.46 342.351 179.347 342.085C179.235 341.818 179.047 341.592 178.807 341.432C178.568 341.272 178.287 341.187 178 341.187C177.802 341.189 177.606 341.231 177.425 341.31C177.243 341.389 177.079 341.505 176.942 341.649C176.806 341.793 176.699 341.964 176.629 342.15C176.558 342.337 176.526 342.536 176.533 342.735Z" fill="#2B4AAE"/>
<path d="M174.928 351.063C174.942 351.672 175.133 352.264 175.479 352.764C175.825 353.264 176.309 353.65 176.871 353.873C177.434 354.097 178.049 354.148 178.641 354.021C179.232 353.894 179.773 353.594 180.195 353.158C180.618 352.723 180.904 352.171 181.017 351.572C181.13 350.974 181.065 350.355 180.831 349.793C180.597 349.231 180.203 348.752 179.699 348.415C179.196 348.078 178.605 347.898 178 347.897C177.176 347.908 176.39 348.247 175.815 348.84C175.239 349.434 174.92 350.233 174.928 351.063Z" fill="#365CD9"/>
<path d="M176.533 351.063C176.547 351.352 176.644 351.631 176.813 351.865C176.982 352.098 177.216 352.277 177.485 352.378C177.754 352.48 178.046 352.499 178.326 352.434C178.606 352.37 178.861 352.224 179.059 352.014C179.257 351.805 179.39 351.542 179.442 351.257C179.493 350.973 179.46 350.679 179.347 350.413C179.235 350.147 179.047 349.92 178.807 349.76C178.568 349.601 178.287 349.515 178 349.515C177.802 349.517 177.606 349.559 177.425 349.638C177.243 349.718 177.079 349.833 176.942 349.977C176.806 350.121 176.699 350.292 176.629 350.478C176.558 350.665 176.526 350.864 176.533 351.063Z" fill="#2B4AAE"/>
<path d="M183.729 342.735C183.743 343.344 183.935 343.936 184.28 344.436C184.626 344.935 185.11 345.321 185.673 345.545C186.235 345.769 186.851 345.82 187.442 345.693C188.033 345.566 188.574 345.266 188.997 344.83C189.42 344.394 189.705 343.843 189.818 343.244C189.931 342.645 189.867 342.027 189.632 341.465C189.398 340.903 189.004 340.424 188.501 340.087C187.997 339.749 187.406 339.569 186.801 339.569C186.392 339.569 185.987 339.651 185.61 339.811C185.232 339.971 184.89 340.206 184.604 340.501C184.318 340.795 184.093 341.145 183.943 341.529C183.793 341.912 183.72 342.322 183.729 342.735Z" fill="#C7C7C7" fill-opacity="0.5"/>
<path d="M185.319 342.735C185.331 343.026 185.428 343.307 185.597 343.543C185.766 343.779 186 343.96 186.271 344.063C186.541 344.166 186.835 344.187 187.117 344.123C187.399 344.058 187.656 343.912 187.856 343.702C188.056 343.492 188.191 343.227 188.243 342.941C188.295 342.654 188.262 342.359 188.149 342.091C188.036 341.823 187.847 341.594 187.606 341.434C187.365 341.273 187.083 341.187 186.794 341.187C186.595 341.189 186.399 341.231 186.217 341.31C186.035 341.389 185.871 341.504 185.733 341.649C185.596 341.793 185.489 341.963 185.418 342.15C185.346 342.336 185.313 342.535 185.319 342.735Z" fill="#2B4AAE"/>
<path d="M185.319 351.063C185.331 351.354 185.428 351.635 185.597 351.871C185.766 352.107 186 352.288 186.271 352.391C186.541 352.494 186.835 352.515 187.117 352.451C187.399 352.387 187.656 352.24 187.856 352.03C188.056 351.82 188.191 351.556 188.243 351.269C188.295 350.983 188.262 350.687 188.149 350.419C188.036 350.151 187.847 349.923 187.606 349.762C187.365 349.601 187.083 349.515 186.794 349.515C186.595 349.517 186.399 349.559 186.217 349.638C186.035 349.717 185.871 349.833 185.733 349.977C185.596 350.121 185.489 350.291 185.418 350.478C185.346 350.664 185.313 350.863 185.319 351.063Z" fill="#2B4AAE"/>
<path d="M227.582 326.496H314.12L309.904 321.566H231.798L227.582 326.496Z" fill="#2B4AAE"/>
<path d="M227.582 326.496C227.582 325.722 246.951 325.15 270.851 325.15C294.751 325.15 314.12 325.753 314.12 326.496C314.12 327.239 294.751 327.843 270.851 327.843C246.951 327.843 227.582 327.239 227.582 326.496Z" fill="#2B4AAE"/>
<path d="M270.851 322.913C292.419 322.913 309.904 322.31 309.904 321.566C309.904 320.822 292.419 320.219 270.851 320.219C249.283 320.219 231.798 320.822 231.798 321.566C231.798 322.31 249.283 322.913 270.851 322.913Z" fill="#365CD9"/>
<path d="M41.8797 326.496H128.418L124.202 321.566H46.096L41.8797 326.496Z" fill="#2B4AAE"/>
<path d="M41.8797 326.496C41.8797 325.722 61.2486 325.15 85.1488 325.15C109.049 325.15 128.418 325.753 128.418 326.496C128.418 327.239 109.049 327.843 85.1488 327.843C61.2486 327.843 41.8797 327.239 41.8797 326.496Z" fill="#2B4AAE"/>
<path d="M85.1488 322.913C106.717 322.913 124.202 322.31 124.202 321.566C124.202 320.822 106.717 320.219 85.1488 320.219C63.5805 320.219 46.096 320.822 46.096 321.566C46.096 322.31 63.5805 322.913 85.1488 322.913Z" fill="#365CD9"/>
<path d="M189.489 323.068H194.005L193.782 318.068H189.712L189.489 323.068Z" fill="#2B4AAE"/>
<path d="M191.747 323.803C192.994 323.803 194.005 323.474 194.005 323.068C194.005 322.661 192.994 322.332 191.747 322.332C190.5 322.332 189.489 322.661 189.489 323.068C189.489 323.474 190.5 323.803 191.747 323.803Z" fill="#2B4AAE"/>
<path d="M189.712 318.068C189.712 317.851 190.618 317.681 191.747 317.681C192.876 317.681 193.782 317.851 193.782 318.068C193.782 318.284 192.876 318.455 191.747 318.455C190.618 318.455 189.712 318.277 189.712 318.068Z" fill="#365CD9"/>
<path d="M180.327 323.068H184.843L184.62 318.068H180.542L180.327 323.068Z" fill="#2B4AAE"/>
<path d="M180.304 323.068C180.304 322.665 181.31 322.332 182.562 322.332C183.814 322.332 184.82 322.665 184.82 323.068C184.82 323.47 183.806 323.795 182.562 323.795C181.318 323.795 180.304 323.47 180.304 323.068Z" fill="#2B4AAE"/>
<path d="M180.542 318.068C180.542 317.851 181.456 317.681 182.585 317.681C183.714 317.681 184.62 317.851 184.62 318.068C184.62 318.284 183.706 318.455 182.585 318.455C181.464 318.455 180.542 318.277 180.542 318.068Z" fill="#365CD9"/>
<path d="M171.157 323.068H175.673L175.458 318.068H171.38L171.157 323.068Z" fill="#2B4AAE"/>
<path d="M173.415 323.803C174.662 323.803 175.673 323.474 175.673 323.068C175.673 322.661 174.662 322.332 173.415 322.332C172.168 322.332 171.157 322.661 171.157 323.068C171.157 323.474 172.168 323.803 173.415 323.803Z" fill="#2B4AAE"/>
<path d="M171.38 318.068C171.38 317.851 172.294 317.681 173.415 317.681C174.536 317.681 175.458 317.851 175.458 318.068C175.458 318.284 174.544 318.455 173.415 318.455C172.286 318.455 171.38 318.277 171.38 318.068Z" fill="#365CD9"/>
<path d="M161.995 323.068H166.511L166.288 318.068H162.218L161.995 323.068Z" fill="#2B4AAE"/>
<path d="M164.253 323.803C165.5 323.803 166.511 323.474 166.511 323.068C166.511 322.661 165.5 322.332 164.253 322.332C163.006 322.332 161.995 322.661 161.995 323.068C161.995 323.474 163.006 323.803 164.253 323.803Z" fill="#2B4AAE"/>
<path d="M162.218 318.068C162.218 317.851 163.124 317.681 164.253 317.681C165.382 317.681 166.296 317.851 166.296 318.068C166.296 318.284 165.382 318.455 164.253 318.455C163.124 318.455 162.218 318.277 162.218 318.068Z" fill="#365CD9"/>
<path d="M190.303 326.303H195.134L194.904 320.947H190.534L190.303 326.303Z" fill="#2B4AAE"/>
<path d="M190.288 326.303C190.288 325.869 191.371 325.529 192.707 325.529C194.044 325.529 195.126 325.877 195.126 326.303C195.126 326.729 194.044 327.077 192.707 327.077C191.371 327.077 190.288 326.736 190.288 326.303Z" fill="#2B4AAE"/>
<path d="M190.534 320.947C190.534 320.722 191.517 320.537 192.723 320.537C193.928 320.537 194.904 320.722 194.904 320.947C194.904 321.171 193.928 321.365 192.723 321.365C191.517 321.365 190.534 321.21 190.534 320.947Z" fill="#365CD9"/>
<path d="M180.488 326.303H185.327L185.089 320.947H180.726L180.488 326.303Z" fill="#2B4AAE"/>
<path d="M180.488 326.303C180.488 325.869 181.571 325.529 182.908 325.529C184.244 325.529 185.327 325.877 185.327 326.303C185.327 326.729 184.244 327.077 182.908 327.077C181.571 327.077 180.488 326.736 180.488 326.303Z" fill="#2B4AAE"/>
<path d="M180.726 320.947C180.726 320.722 181.702 320.537 182.908 320.537C184.113 320.537 185.089 320.722 185.089 320.947C185.089 321.171 184.113 321.365 182.908 321.365C181.702 321.365 180.726 321.21 180.726 320.947Z" fill="#365CD9"/>
<path d="M170.673 326.303H175.512L175.274 320.947H170.911L170.673 326.303Z" fill="#2B4AAE"/>
<path d="M170.673 326.303C170.673 325.869 171.756 325.529 173.092 325.529C174.429 325.529 175.512 325.877 175.512 326.303C175.512 326.729 174.429 327.077 173.092 327.077C171.756 327.077 170.673 326.736 170.673 326.303Z" fill="#2B4AAE"/>
<path d="M170.911 320.947C170.911 320.722 171.887 320.537 173.092 320.537C174.298 320.537 175.274 320.722 175.274 320.947C175.274 321.171 174.298 321.365 173.092 321.365C171.887 321.365 170.911 321.21 170.911 320.947Z" fill="#365CD9"/>
<path d="M160.866 326.303H165.697L165.466 320.947H161.096L160.866 326.303Z" fill="#2B4AAE"/>
<path d="M160.858 326.303C160.858 325.869 161.941 325.529 163.277 325.529C164.614 325.529 165.697 325.877 165.697 326.303C165.697 326.729 164.614 327.077 163.277 327.077C161.941 327.077 160.858 326.736 160.858 326.303Z" fill="#2B4AAE"/>
<path d="M161.104 320.947C161.104 320.722 162.079 320.537 163.285 320.537C164.491 320.537 165.474 320.722 165.474 320.947C165.474 321.171 164.491 321.365 163.285 321.365C162.079 321.365 161.104 321.21 161.104 320.947Z" fill="#365CD9"/>
<path d="M212.806 322.959H219.764L219.426 317.959H213.144L212.806 322.959Z" fill="#2B4AAE"/>
<path d="M212.806 322.959C212.806 322.557 214.342 322.232 216.285 322.232C218.228 322.232 219.764 322.557 219.764 322.959C219.764 323.362 218.228 323.695 216.285 323.695C214.342 323.695 212.806 323.369 212.806 322.959Z" fill="#2B4AAE"/>
<path d="M213.144 317.959C213.144 317.75 214.549 317.572 216.285 317.572C218.02 317.572 219.426 317.75 219.426 317.959C219.426 318.168 218.02 318.346 216.285 318.346C214.549 318.346 213.144 318.176 213.144 317.959Z" fill="#365CD9"/>
<path d="M202.76 322.959H209.718L209.38 317.959H203.098L202.76 322.959Z" fill="#2B4AAE"/>
<path d="M202.76 322.959C202.76 322.557 204.296 322.232 206.239 322.232C208.182 322.232 209.718 322.557 209.718 322.959C209.718 323.362 208.182 323.695 206.239 323.695C204.296 323.695 202.76 323.369 202.76 322.959Z" fill="#2B4AAE"/>
<path d="M203.098 317.959C203.098 317.75 204.504 317.572 206.239 317.572C207.975 317.572 209.38 317.75 209.38 317.959C209.38 318.168 207.975 318.346 206.239 318.346C204.504 318.346 203.098 318.176 203.098 317.959Z" fill="#365CD9"/>
<path d="M213.105 326.326H220.363L220.01 321.109H213.459L213.105 326.326Z" fill="#2B4AAE"/>
<path d="M213.105 326.326C213.105 325.9 214.733 325.552 216.738 325.552C218.742 325.552 220.363 325.893 220.363 326.326C220.363 326.76 218.742 327.1 216.738 327.1C214.733 327.1 213.105 326.744 213.105 326.326Z" fill="#2B4AAE"/>
<path d="M213.459 321.109C213.459 320.885 214.925 320.707 216.738 320.707C218.55 320.707 220.01 320.885 220.01 321.109C220.01 321.334 218.543 321.512 216.738 321.512C214.933 321.512 213.459 321.334 213.459 321.109Z" fill="#365CD9"/>
<path d="M202.614 326.326H209.864L209.511 321.109H202.968L202.614 326.326Z" fill="#2B4AAE"/>
<path d="M202.614 326.326C202.614 325.9 204.235 325.552 206.239 325.552C208.244 325.552 209.864 325.893 209.864 326.326C209.864 326.76 208.244 327.1 206.239 327.1C204.235 327.1 202.614 326.744 202.614 326.326Z" fill="#2B4AAE"/>
<path d="M202.968 321.109C202.968 320.885 204.435 320.707 206.239 320.707C208.044 320.707 209.511 320.885 209.511 321.109C209.511 321.334 208.052 321.512 206.239 321.512C204.427 321.512 202.968 321.334 202.968 321.109Z" fill="#365CD9"/>
<path d="M149.722 327.727H150.283V322.619H149.722V327.727Z" fill="#2B4AAE"/>
<path d="M140.153 327.727H140.714V322.619H140.153V327.727Z" fill="#2B4AAE"/>
<path d="M146.412 324.631H153.585L154.015 327.092H145.99L146.412 324.631Z" fill="#2B4AAE"/>
<path d="M146.842 324.213H153.163L153.585 324.631H146.412L146.842 324.213Z" fill="#365CD9"/>
<path d="M136.843 322.696H144.016L144.446 325.157H136.42L136.843 322.696Z" fill="#2B4AAE"/>
<path d="M137.273 322.278H143.594L144.016 322.696H136.843L137.273 322.278Z" fill="#365CD9"/>
<path d="M311.302 343.06H325.871V335.134H311.302V343.06Z" fill="#2B4AAE"/>
<path d="M290.888 343.06H305.457V335.134H290.888V343.06Z" fill="#2B4AAE"/>
<path d="M199.404 345.715H281.634V332.487H199.404V345.715Z" fill="#365CD9"/>
<path d="M202.814 336.736H278.224V335.436H202.814V336.736Z" fill="#2B4AAE"/>
<path d="M202.814 339.747H278.224V338.447H202.814V339.747Z" fill="#2B4AAE"/>
<path d="M202.814 342.766H278.224V341.466H202.814V342.766Z" fill="#2B4AAE"/>
<path d="M61.264 348.966C52.2477 348.966 44.7366 343.594 44.4218 343.362L45.328 342.108C45.3971 342.162 52.7622 347.418 61.2717 347.418C70.1344 347.418 82.8602 342.58 83.6128 342.093L84.473 343.377C83.4054 344.097 70.3878 348.966 61.264 348.966Z" fill="#2B4AAE"/>
<path d="M106.576 348.966C91.3154 348.865 76.115 347.027 61.264 343.486L61.6557 341.984C76.3886 345.493 91.4682 347.311 106.607 347.402C130.714 347.402 166.357 342.642 169.091 341.984L169.46 343.486C166.634 344.167 130.753 348.966 106.576 348.966Z" fill="#2B4AAE"/>
<path d="M119.678 357.588C107.314 357.461 95.035 355.516 83.2288 351.814L83.728 350.343C95.3711 354.001 107.483 355.92 119.678 356.04C138.993 356.04 167.517 351.055 169.706 350.343L170.182 351.814C167.962 352.518 139.132 357.588 119.678 357.588Z" fill="#2B4AAE"/>
<path d="M303.821 301.163C305.611 300.467 307.431 299.917 309.259 299.406C311.087 298.896 312.922 298.454 314.773 298.036C316.624 297.618 318.483 297.262 320.356 296.961C322.23 296.659 324.104 296.396 326.017 296.272C324.238 296.95 322.425 297.537 320.587 298.029C318.759 298.547 316.916 298.981 315.065 299.406C313.214 299.832 311.363 300.18 309.489 300.475C307.615 300.769 305.734 301.04 303.821 301.163Z" fill="#365CD9"/>
<path d="M91.6384 68.6383C93.1206 69.8535 94.503 71.1693 95.8547 72.5083C97.2064 73.8473 98.4966 75.2405 99.7792 76.6415C101.062 78.0424 102.291 79.4975 103.481 80.9836C104.694 82.473 105.832 84.023 106.891 85.6276C105.409 84.4047 104.026 83.0966 102.675 81.7576C101.323 80.4186 100.033 79.0254 98.7501 77.6244C97.4675 76.2235 96.2387 74.7606 95.0483 73.2746C93.8579 71.7885 92.6906 70.2482 91.6384 68.6383Z" fill="#365CD9"/>
<path d="M308.775 288.841C311.079 287.363 313.468 286.016 315.871 284.708C318.275 283.4 320.702 282.146 323.137 280.923C325.571 279.7 328.052 278.532 330.548 277.417C333.044 276.303 335.548 275.211 338.12 274.259C335.816 275.737 333.428 277.092 331.024 278.4C328.62 279.708 326.193 280.954 323.759 282.177C321.324 283.4 318.844 284.569 316.348 285.683C313.852 286.798 311.348 287.882 308.775 288.841Z" fill="#365CD9"/>
<path d="M60.0659 74.1337C63.2685 75.1476 66.4096 76.3086 69.52 77.5315C72.6304 78.7544 75.7178 80.047 78.7898 81.4015C81.8618 82.756 84.9338 84.1183 87.9059 85.5811C90.8781 87.044 93.9117 88.5378 96.8378 90.2251C93.6275 89.2189 90.4941 88.0579 87.376 86.835C84.2579 85.6121 81.1782 84.3195 78.1139 82.965C75.0496 81.6105 71.9699 80.2405 68.9901 78.7777C66.0102 77.3148 62.992 75.7978 60.0659 74.1337Z" fill="#365CD9"/>
<path d="M302.055 285.962C303.399 283.547 304.851 281.217 306.34 278.919C307.83 276.62 309.412 274.352 310.948 272.1C312.484 269.847 314.136 267.642 315.802 265.467C317.469 263.292 319.158 261.124 320.971 259.058C319.635 261.465 318.175 263.795 316.685 266.101C315.195 268.408 313.613 270.66 312.077 272.912C310.541 275.165 308.89 277.371 307.224 279.553C305.557 281.736 303.868 283.888 302.055 285.962Z" fill="#365CD9"/>
<path d="M62.439 99.8847C65.1808 99.7221 67.9072 99.7067 70.6336 99.7299C73.36 99.7531 76.0941 99.846 78.8128 99.9621C81.5315 100.078 84.2579 100.264 86.9766 100.504C89.6953 100.744 92.4141 101.022 95.1251 101.44C92.3833 101.603 89.6569 101.626 86.9305 101.603C84.2041 101.58 81.4701 101.479 78.7513 101.363C76.0326 101.247 73.3062 101.061 70.5875 100.821C67.8688 100.581 65.1501 100.303 62.439 99.8847Z" fill="#365CD9"/>
<path d="M221.008 198.972C220.826 199.986 220.35 200.923 219.639 201.664C218.929 202.405 218.016 202.917 217.017 203.135C216.018 203.354 214.977 203.268 214.026 202.891C213.075 202.513 212.256 201.859 211.674 201.012C211.091 200.165 210.771 199.163 210.754 198.133C210.737 197.103 211.023 196.09 211.577 195.224C212.13 194.358 212.926 193.676 213.864 193.266C214.802 192.856 215.839 192.735 216.845 192.919C218.194 193.166 219.389 193.942 220.17 195.077C220.951 196.212 221.252 197.613 221.008 198.972Z" fill="#EFFAFF"/>
<path d="M225.655 173.156L221.772 172.443L217.12 198.189L221.004 198.901L225.655 173.156Z" fill="#EFFAFF"/>
<path d="M238.764 194.545C238.581 195.557 238.104 196.491 237.394 197.229C236.683 197.968 235.772 198.478 234.774 198.694C233.777 198.911 232.738 198.825 231.789 198.446C230.84 198.068 230.024 197.415 229.443 196.569C228.862 195.723 228.544 194.723 228.527 193.695C228.51 192.666 228.797 191.656 229.35 190.792C229.902 189.927 230.697 189.247 231.633 188.838C232.57 188.429 233.605 188.308 234.609 188.492C235.277 188.614 235.914 188.868 236.484 189.238C237.054 189.608 237.546 190.088 237.932 190.651C238.317 191.213 238.59 191.846 238.732 192.514C238.875 193.182 238.886 193.872 238.764 194.545Z" fill="#EFFAFF"/>
<path d="M243.45 168.723L239.566 168.011L234.914 193.756L238.798 194.469L243.45 168.723Z" fill="#EFFAFF"/>
<path d="M243.426 168.794L221.131 175.899L221.753 172.455L244.048 165.35L243.426 168.794Z" fill="#EFFAFF"/>
<path d="M242.251 175.28L219.964 182.385L220.586 178.941L242.873 171.836L242.251 175.28Z" fill="#EFFAFF"/>
<path d="M270.974 248.57C270.808 249.501 270.371 250.361 269.72 251.042C269.069 251.722 268.232 252.194 267.316 252.395C266.399 252.597 265.444 252.521 264.57 252.175C263.697 251.83 262.944 251.232 262.408 250.456C261.872 249.68 261.576 248.761 261.558 247.816C261.539 246.87 261.799 245.94 262.305 245.144C262.811 244.347 263.54 243.72 264.399 243.341C265.259 242.961 266.21 242.847 267.134 243.013C267.749 243.122 268.337 243.353 268.863 243.691C269.389 244.03 269.844 244.47 270.201 244.987C270.557 245.503 270.809 246.086 270.942 246.701C271.075 247.316 271.086 247.951 270.974 248.57Z" fill="#365CD9"/>
<path d="M275.264 224.856L271.698 224.202L267.424 247.853L270.991 248.508L275.264 224.856Z" fill="#365CD9"/>
<path d="M287.325 244.499C287.158 245.429 286.722 246.289 286.071 246.97C285.42 247.651 284.583 248.122 283.667 248.324C282.75 248.526 281.794 248.449 280.921 248.104C280.047 247.759 279.295 247.16 278.759 246.384C278.223 245.608 277.927 244.69 277.908 243.744C277.89 242.799 278.15 241.869 278.656 241.073C279.162 240.276 279.89 239.649 280.75 239.269C281.609 238.89 282.561 238.776 283.485 238.941C284.725 239.166 285.826 239.877 286.546 240.919C287.266 241.961 287.546 243.249 287.325 244.499Z" fill="#365CD9"/>
<path d="M291.621 220.776L288.055 220.122L283.781 243.773L287.348 244.428L291.621 220.776Z" fill="#365CD9"/>
<path d="M291.603 220.845L271.12 227.37L271.696 224.212L292.179 217.68L291.603 220.845Z" fill="#365CD9"/>
<path d="M290.527 226.805L270.045 233.33L270.613 230.172L291.096 223.64L290.527 226.805Z" fill="#365CD9"/>
<path d="M199.097 177.509C198.945 178.359 198.546 179.144 197.951 179.766C197.356 180.387 196.591 180.817 195.753 181C194.916 181.183 194.043 181.112 193.246 180.795C192.449 180.479 191.762 179.931 191.274 179.221C190.786 178.511 190.518 177.671 190.503 176.808C190.489 175.944 190.729 175.096 191.193 174.37C191.657 173.644 192.325 173.073 193.111 172.729C193.897 172.385 194.767 172.285 195.61 172.439C196.739 172.647 197.74 173.297 198.394 174.247C199.048 175.198 199.301 176.371 199.097 177.509Z" fill="#365CD9"/>
<path d="M202.058 155.476L198.821 154.877L194.906 176.358L198.143 176.957L202.058 155.476Z" fill="#365CD9"/>
<path d="M215.032 152.378L211.784 151.781L210.656 158.017L213.905 158.614L215.032 152.378Z" fill="#365CD9"/>
<path d="M214.902 153.198L199.228 158.175L199.75 155.295L215.425 150.311L214.902 153.198Z" fill="#365CD9"/>
<path d="M213.919 158.631L198.244 163.616L198.767 160.729L214.442 155.744L213.919 158.631Z" fill="#365CD9"/>
<path d="M279.038 129.258C278.855 130.27 278.378 131.204 277.668 131.942C276.957 132.681 276.046 133.191 275.048 133.407C274.051 133.624 273.012 133.538 272.063 133.159C271.114 132.781 270.298 132.128 269.717 131.282C269.136 130.436 268.818 129.436 268.801 128.408C268.784 127.379 269.071 126.369 269.623 125.505C270.176 124.64 270.971 123.96 271.907 123.551C272.844 123.142 273.879 123.022 274.883 123.205C276.23 123.454 277.424 124.231 278.203 125.365C278.982 126.5 279.282 127.9 279.038 129.258Z" fill="#EFFAFF"/>
<path d="M283.717 103.398L279.833 102.685L275.182 128.431L279.065 129.143L283.717 103.398Z" fill="#EFFAFF"/>
<path d="M298.068 99.2251L294.185 98.5117L292.839 105.951L296.723 106.665L298.068 99.2251Z" fill="#EFFAFF"/>
<path d="M297.9 100.202L279.199 106.146L279.821 102.702L298.522 96.7577L297.9 100.202Z" fill="#EFFAFF"/>
<path d="M296.733 106.688L278.024 112.632L278.646 109.188L297.347 103.244L296.733 106.688Z" fill="#EFFAFF"/>
</g>
<defs>
<clipPath id="clip0_1_19">
<rect width="358" height="358" fill="white"/>
</clipPath>
</defs>
</svg>
