<svg width="358" height="358" viewBox="0 0 358 358" fill="none" xmlns="http://www.w3.org/2000/svg">
<g clip-path="url(#clip0_1_724)">
<path d="M181.447 166.813C180.366 172.788 179.293 178.802 177.942 184.723C177.098 188.304 176.068 191.838 174.854 195.311C173.14 196.216 171.327 196.918 169.45 197.401C169.759 196.526 170.053 195.644 170.346 194.785C171.71 190.631 172.849 186.407 173.758 182.13C173.797 181.983 173.573 181.952 173.534 182.13C172.369 186.48 170.84 190.776 169.288 195.002C168.949 195.923 168.578 196.836 168.2 197.734C166.419 198.122 164.613 198.381 162.796 198.508C163.197 197.509 163.568 196.495 163.946 195.512C164.834 193.19 165.675 190.868 166.44 188.477C167.932 183.8 169.148 179.039 170.083 174.22C170.122 174.018 169.821 173.987 169.775 174.181C168.493 179.057 167.029 183.887 165.382 188.67C164.61 190.923 163.838 193.175 162.935 195.396C162.518 196.464 162.062 197.517 161.615 198.577C158.278 198.728 154.935 198.609 151.617 198.221C142.083 197.169 132.834 192.981 124.597 188.02C117.427 183.791 111.322 177.964 106.756 170.992C110.227 168.276 113.269 165.051 115.781 161.425C115.797 161.402 115.803 161.373 115.799 161.344C115.795 161.316 115.78 161.29 115.758 161.272C115.736 161.254 115.708 161.244 115.679 161.245C115.651 161.247 115.624 161.258 115.603 161.278C113.596 163.409 111.496 165.44 109.304 167.37C108.277 168.283 107.204 169.135 106.131 169.994C106.069 169.885 106.007 169.777 105.938 169.669C105.521 168.964 105.081 168.213 104.664 167.424C106.763 165.595 108.753 163.644 110.624 161.58C113.344 158.745 115.795 155.662 117.943 152.37C117.976 152.328 117.992 152.274 117.986 152.22C117.98 152.166 117.954 152.117 117.912 152.083C117.87 152.049 117.816 152.034 117.762 152.039C117.709 152.045 117.66 152.072 117.626 152.114C115.032 154.939 112.523 157.834 109.906 160.628C108.045 162.594 106.046 164.429 104.139 166.34C102.989 163.91 102.279 161.224 103.313 158.6C104.178 156.456 105.953 154.893 107.505 153.291C109.258 151.503 110.809 149.537 112.454 147.648C119.324 139.73 131.931 65.1089 159.275 68.8551C159.36 68.7622 184.458 62.6631 194.849 74.9542C215.284 99.072 185.33 181.658 183.377 186.186C181.945 189.546 179.541 192.399 176.476 194.375C177.425 191.442 178.226 188.464 178.876 185.45C180.168 179.315 181.129 173.114 181.756 166.874C181.76 166.854 181.76 166.833 181.756 166.813C181.752 166.792 181.744 166.773 181.733 166.756C181.721 166.739 181.706 166.724 181.689 166.712C181.672 166.701 181.653 166.693 181.633 166.689C181.612 166.685 181.591 166.685 181.571 166.689C181.551 166.693 181.531 166.701 181.514 166.712C181.497 166.724 181.482 166.738 181.471 166.756C181.459 166.773 181.451 166.792 181.447 166.813Z" fill="#263238"/>
<path d="M152.227 69.6987C148.439 71.507 145.087 74.1158 142.399 77.3458C139.673 80.5067 137.295 83.9528 135.305 87.6246C131.34 94.9996 128.043 102.716 125.454 110.682C122.752 118.631 120.444 126.743 117.533 134.676C116.046 138.671 114.182 142.514 111.967 146.154C109.651 149.715 106.764 153.035 103.074 155.125C106.393 152.597 109.12 149.372 111.064 145.675C113.063 142.008 114.709 138.16 115.982 134.181C118.722 126.263 120.822 118.066 123.617 110.071C126.411 102.075 129.592 94.1649 134.039 86.897C136.204 83.2264 138.779 79.8144 141.712 76.7266C144.635 73.6086 148.232 71.2043 152.227 69.6987Z" fill="#263238"/>
<path d="M194.895 74.9851C198.03 78.7516 200.392 83.1023 201.843 87.7871C203.221 92.4918 204 97.3524 204.159 102.253C204.692 112.052 203.387 121.789 201.782 131.379C199.973 140.943 197.677 150.409 194.903 159.738C193.429 164.382 191.769 168.949 190.009 173.477C189.098 175.729 188.156 177.974 187.16 180.187C186.236 182.438 185.099 184.595 183.763 186.627C184.899 184.491 185.869 182.271 186.666 179.986C187.523 177.718 188.31 175.427 189.082 173.136C190.626 168.562 192.17 163.949 193.421 159.297C195.86 149.955 198.231 140.551 199.859 131.03C201.612 121.549 202.855 111.928 202.67 102.307C202.592 92.7484 200.616 82.9263 194.895 74.9851Z" fill="#263238"/>
<path d="M234.901 357.642H151.131C148.205 346.11 144.908 333.161 141.867 321.264C141.828 321.125 141.797 320.978 141.759 320.839C141.759 320.839 141.759 320.839 141.759 320.8C141.527 319.91 141.303 319.02 141.087 318.145C141.01 317.851 140.94 317.565 140.871 317.27C140.678 316.558 140.5 315.838 140.323 315.142C135.59 296.566 131.831 281.821 131.769 281.488C131.723 281.279 131.676 281.117 131.646 280.993C131.615 280.869 131.568 280.714 131.568 280.714H213.022L234.901 357.642Z" fill="#2946A6"/>
<path d="M210.39 280.66V280.699C210.39 280.745 210.39 280.846 210.39 280.977C210.39 281.93 210.39 282.897 210.39 283.857C210.351 286.303 210.235 288.748 210.081 291.187C209.433 300.75 208.185 310.263 206.344 319.67C203.965 332.065 200.812 344.297 196.903 356.295L196.439 357.634H86.0666C85.2406 353.981 83.8973 347.836 84.5226 340.924C86.3291 321.938 97.9477 283.803 98.9976 281.535C99.2524 280.977 99.3991 280.691 99.3991 280.691H121.648H174.353H210.359L210.39 280.66Z" fill="#2946A6"/>
<path d="M212.196 351.644C207.788 353.54 203.449 355.591 199.072 357.642H193.267C194.432 357.178 195.583 356.737 196.795 356.303C201.805 354.469 206.916 352.851 212.011 351.264C212.061 351.24 212.119 351.236 212.172 351.254C212.224 351.272 212.268 351.311 212.293 351.361C212.317 351.411 212.321 351.47 212.303 351.522C212.285 351.575 212.246 351.619 212.196 351.644Z" fill="#263238"/>
<path d="M203.65 306.102C202.839 344.275 196.833 346.45 193.66 347.069C193.274 347.151 192.881 347.195 192.487 347.201C192.448 348.068 192.325 348.935 192.263 349.794C192.17 351.148 192 352.503 191.831 353.842C191.651 355.123 191.393 356.392 191.059 357.642H189.576C189.576 357.603 189.576 357.573 189.576 357.534C189.754 356.218 189.947 354.879 190.217 353.586C190.487 352.294 190.719 351.017 190.989 349.716C191.167 348.857 191.29 347.975 191.452 347.1C190.421 346.929 189.449 346.504 188.623 345.862C187.797 345.22 187.143 344.382 186.72 343.424C185.238 340.274 185.122 336.543 185.176 333.122C185.276 329.02 185.562 324.917 185.77 320.823C186.249 311.148 186.62 301.427 187.515 291.775C187.527 291.704 187.563 291.64 187.617 291.593C187.672 291.547 187.741 291.521 187.812 291.521C187.884 291.521 187.953 291.547 188.008 291.593C188.062 291.64 188.098 291.704 188.11 291.775C188.233 299.259 187.947 306.767 187.793 314.221C187.724 317.967 187.616 321.713 187.507 325.452C187.415 329.02 187.175 332.627 187.438 336.187C187.639 338.88 188.21 344.128 191.738 344.445C195.042 344.755 196.864 341.171 197.69 338.555C199.782 331.891 200.531 324.701 201.203 317.773C201.612 313.664 202.013 309.577 202.26 305.459C202.507 301.341 202.832 295.18 202.608 291.032C202.608 290.769 202.978 290.776 203.025 291.032C203.704 294.639 203.704 301.86 203.65 306.102Z" fill="#263238"/>
<path d="M108.331 325.854C113.642 326.226 118.892 326.914 124.219 326.272C129.239 325.764 134.025 323.891 138.061 320.854C146.823 314.035 150.66 302.89 153.038 292.425C153.045 292.376 153.071 292.331 153.111 292.302C153.151 292.272 153.201 292.259 153.25 292.266C153.299 292.274 153.343 292.3 153.373 292.34C153.403 292.38 153.415 292.43 153.408 292.479C152.42 301.55 150.467 310.931 144.623 318.238C142.108 321.449 138.929 324.077 135.305 325.939C131.44 327.737 127.211 328.606 122.953 328.478C117.971 328.434 113.015 327.763 108.2 326.481C108.117 326.464 108.044 326.414 107.998 326.343C107.952 326.272 107.935 326.185 107.953 326.102C107.97 326.019 108.02 325.946 108.091 325.899C108.162 325.853 108.248 325.837 108.331 325.854Z" fill="#263238"/>
<path d="M224.301 323.764C222.826 323.594 221.375 323.718 219.877 322.626C218.38 321.535 217.09 319.53 215.925 316.326C213.362 309.252 212.103 298.687 211.293 288.903C211.293 288.679 211.177 288.687 211.192 288.903C211.617 297.293 212.32 306.055 214.064 313.292C214.661 316.027 215.57 318.684 216.774 321.21C217.862 323.315 219.09 324.306 220.256 324.724C220.928 324.94 221.638 325.014 222.34 324.944C223.043 324.873 223.723 324.659 224.34 324.314C224.448 324.306 224.417 323.78 224.301 323.764Z" fill="#263238"/>
<path d="M96.1181 344.569C96.4745 348.97 97.1453 353.338 98.1253 357.642H96.8746C95.7393 353.395 94.9519 349.061 94.52 344.685C94.3552 343.028 94.3915 341.357 94.6281 339.709C95.5854 333.292 96.9441 327.031 98.2565 320.738C101.028 308.184 103.992 295.668 107.389 283.284C104.533 298.965 101.152 314.871 98.0172 330.498C97.2298 335.196 95.8402 339.786 96.1181 344.569Z" fill="#263238"/>
<path d="M253.027 127.122C251.36 124.568 240.166 104.01 229.28 96.2547C223.514 92.1447 206.398 82.64 203.465 85.8444C200.786 88.7701 204.839 92.5317 204.839 92.5317C204.839 92.5317 197.119 88.4063 193.475 92.5317C189.831 96.6572 196.964 102.594 196.964 102.594C196.964 102.594 188.758 98.9327 185.384 103.298C182.011 107.663 190.225 112.47 190.225 112.47C190.225 112.47 182.875 108.77 181.602 113.538C180.058 119.266 194.394 124.552 199.875 130.156C201.118 131.425 223.274 157.757 223.274 157.757L253.027 127.122Z" fill="white"/>
<path d="M190.217 112.803C200.732 116.673 204.661 120.249 211.37 129.057C211.501 129.227 211.787 129.057 211.671 128.879C205.881 119.668 201.589 114.521 190.379 112.3C189.808 112.176 189.715 112.617 190.217 112.803Z" fill="#263238"/>
<path d="M196.91 102.942C207.487 107.958 211.779 111.75 219.484 120.442C219.592 120.566 219.816 120.396 219.715 120.264C212.868 111.1 208.467 106.061 197.25 102.462C196.756 102.269 196.432 102.702 196.91 102.942Z" fill="#263238"/>
<path d="M205.202 92.9574C215.083 98.5534 219.978 102.516 226.37 111.913C226.398 111.961 226.443 111.996 226.497 112.011C226.55 112.025 226.607 112.018 226.656 111.99C226.704 111.962 226.739 111.917 226.753 111.863C226.768 111.809 226.76 111.752 226.733 111.704C221.136 101.479 215.076 96.4946 205.402 92.6788C204.738 92.4156 204.576 92.6091 205.202 92.9574Z" fill="#263238"/>
<path d="M223.313 166.851C223.313 166.851 210.891 160.249 206.074 156.139C201.257 152.029 188.928 130.094 193.498 127.16C199.404 123.36 209.015 134.622 212.999 140.744C212.999 140.744 226.656 131.959 235.287 138.538C243.917 145.117 223.313 166.851 223.313 166.851Z" fill="white"/>
<path d="M195.467 126.65C203.341 127.083 208.058 135.466 212.366 141.123C212.426 141.21 212.505 141.28 212.598 141.329C212.691 141.377 212.794 141.403 212.899 141.403C213.003 141.403 213.106 141.377 213.199 141.329C213.292 141.28 213.372 141.21 213.431 141.123C219.399 137.818 228.779 134.931 235.232 138.097C235.269 138.11 235.309 138.109 235.346 138.096C235.382 138.082 235.413 138.056 235.433 138.023C235.453 137.989 235.461 137.95 235.455 137.911C235.45 137.873 235.431 137.837 235.402 137.811C228.941 133.453 219.499 135.558 213.192 139.599C208.861 133.724 203.766 125.527 195.436 126.572C195.426 126.576 195.417 126.584 195.413 126.595C195.409 126.605 195.409 126.616 195.413 126.626C195.417 126.637 195.425 126.645 195.435 126.649C195.445 126.654 195.457 126.654 195.467 126.65Z" fill="#263238"/>
<path d="M183.748 175.768C196.347 188.585 229.713 219.816 258.516 230.652C269.71 234.87 289.072 223.609 290.353 216.039C294.661 190.582 261.581 133.933 253.043 127.114C248.542 123.515 211.455 154.614 218.225 162.076C221.005 165.172 226.524 170.288 226.524 170.288C225.814 170.861 215.925 165.93 192.657 159.452C170.369 153.252 175.912 167.819 183.748 175.768Z" fill="white"/>
<path d="M266.522 216.883C265.124 215.443 263.835 213.91 262.523 212.409C261.21 210.907 259.828 209.444 258.516 207.935C255.899 204.947 253.22 202.014 250.603 199.026C245.359 193.046 240.235 186.975 235.232 180.814C233.827 179.08 232.428 177.344 231.033 175.605C229.62 173.84 228.122 172.145 226.733 170.365C226.578 170.172 226.3 170.412 226.439 170.613C227.59 172.254 228.67 173.949 229.836 175.582C231.002 177.215 232.199 178.817 233.418 180.412C235.832 183.559 238.302 186.655 240.829 189.7C245.886 195.83 251.143 201.79 256.671 207.502C258.215 209.112 259.852 210.66 261.434 212.239C263.017 213.818 264.8 215.335 266.421 216.883C266.475 217.022 266.576 216.937 266.522 216.883Z" fill="#263238"/>
<path d="M215.917 286.759L211.509 251.047C211.509 251.047 224.448 237.115 217.978 220.257C214.713 211.743 198.115 169.692 184.713 158.5C173.704 149.305 153.57 152.238 146.113 163.144C129.198 187.834 112.014 217.068 98.4341 280.351L215.917 286.759Z" fill="#365CD9"/>
<g opacity="0.1">
<path d="M215.431 282.82L99.2678 276.488C99.484 275.513 99.7002 274.538 99.9163 273.578L215.068 279.855L215.431 282.82Z" fill="black"/>
<path d="M214.257 273.307L101.422 267.154C101.653 266.171 101.893 265.203 102.132 264.244L213.887 270.343L214.257 273.307Z" fill="black"/>
<path d="M213.084 263.787L103.769 257.827C104.021 256.842 104.278 255.874 104.541 254.925L212.713 260.838L213.084 263.787Z" fill="black"/>
<path d="M211.91 254.274L106.316 248.508C106.594 247.533 106.872 246.565 107.158 245.613L211.54 251.302L211.91 254.274Z" fill="black"/>
<path d="M217.09 242.154C216.635 243.191 216.156 244.151 215.678 245.025L109.095 239.213L110.014 236.318L217.09 242.154Z" fill="black"/>
<path d="M219.63 232.842C219.533 233.823 219.378 234.798 219.167 235.76L112.153 229.925C112.492 228.949 112.824 227.989 113.164 227.037L219.63 232.842Z" fill="black"/>
<path d="M219.545 226.333L115.511 220.66C115.881 219.684 116.283 218.725 116.63 217.773L218.966 223.353C219.216 224.335 219.409 225.329 219.545 226.333Z" fill="black"/>
<path d="M216.596 216.72L119.224 211.41C119.633 210.435 120.042 209.475 120.467 208.531L215.423 213.709C215.84 214.808 216.241 215.814 216.596 216.72Z" fill="black"/>
<path d="M212.644 207.045L123.339 202.177C123.794 201.209 124.25 200.257 124.705 199.313L211.355 204.034C211.802 205.064 212.196 206.07 212.644 207.045Z" fill="black"/>
<path d="M208.405 197.37L127.894 192.974C128.403 192.006 128.913 191.046 129.438 190.11L207.039 194.344C207.495 195.358 207.958 196.372 208.405 197.37Z" fill="black"/>
<path d="M203.835 187.664L132.95 183.794C133.506 182.827 134.062 181.875 134.625 180.938L202.314 184.63L203.835 187.664Z" fill="black"/>
<path d="M198.755 177.935L138.493 174.645C139.103 173.686 139.705 172.741 140.315 171.805L197.042 174.901C197.613 175.884 198.192 176.898 198.755 177.935Z" fill="black"/>
<path d="M192.834 168.159L144.484 165.52C145.024 164.746 145.557 163.972 146.097 163.151C146.205 162.989 146.321 162.834 146.429 162.679L190.673 165.094C191.398 166.062 192.124 167.083 192.834 168.159Z" fill="black"/>
<path d="M184.404 158.244L153.678 156.572C155.796 155.434 158.047 154.566 160.379 153.987L178.807 154.994C180.821 155.797 182.707 156.893 184.404 158.244Z" fill="black"/>
</g>
<path d="M192.688 241.697C186.599 241.887 180.532 242.529 174.538 243.617C171.566 244.205 168.64 244.917 165.714 245.699C164.263 246.093 162.796 246.426 161.329 246.759C159.797 247.152 158.224 247.357 156.643 247.37C156.614 247.37 156.587 247.382 156.566 247.402C156.546 247.422 156.535 247.45 156.535 247.479C156.535 247.508 156.546 247.535 156.566 247.555C156.587 247.576 156.614 247.587 156.643 247.587C158.125 247.747 159.615 247.807 161.105 247.765C162.549 247.677 163.986 247.491 165.405 247.208C168.424 246.643 171.419 245.939 174.43 245.35C180.513 244.151 186.589 242.959 192.742 242.2C193.02 242.169 192.981 241.682 192.688 241.697Z" fill="#263238"/>
<path d="M207.348 247.943C202.39 247.126 197.39 246.593 192.371 246.349C189.854 246.233 187.353 246.264 184.844 246.349C183.64 246.395 182.443 246.457 181.247 246.542C179.926 246.635 178.622 246.906 177.302 246.976C177.17 246.976 177.155 247.2 177.302 247.192C178.545 247.192 179.803 247.339 181.046 247.378L184.805 247.502C187.307 247.579 189.808 247.695 192.317 247.757C197.335 247.874 202.353 248.044 207.34 248.338C207.603 248.369 207.603 247.982 207.348 247.943Z" fill="#263238"/>
<path d="M149.872 73.6771C148.328 75.9991 128.882 77.3845 124.281 66.3163C119.749 55.4184 134.625 41.409 145.179 49.2883C151.841 54.2419 153.177 68.7157 149.872 73.6771Z" fill="#263238"/>
<path d="M131.067 50.5887C134.054 48.3456 137.712 47.1858 141.442 47.2992C143.186 47.315 144.895 47.7903 146.398 48.6774C147.9 49.5645 149.144 50.8322 150.004 52.3534C151.833 55.403 152.381 59.1491 152.366 62.8256C152.328 64.69 152.124 66.5472 151.756 68.3752C151.463 70.2446 150.824 72.0426 149.872 73.6771C151.185 72.2324 152.168 70.5182 152.752 68.6538C153.396 66.8012 153.818 64.8786 154.01 62.9263C154.365 59.0563 153.902 54.8612 151.818 51.3163C150.77 49.4959 149.245 47.9972 147.41 46.9819C145.573 46.0187 143.513 45.5645 141.442 45.6661C139.47 45.7388 137.534 46.2127 135.75 47.059C133.966 47.9052 132.373 49.1061 131.067 50.5887Z" fill="#263238"/>
<path d="M189.461 113.004C192.78 121.518 201.496 126.038 208.938 123.113C216.38 120.187 219.746 110.938 216.403 102.431C213.061 93.925 204.368 89.4049 196.926 92.3228C189.484 95.2408 186.141 104.49 189.461 113.004Z" fill="#365CD9"/>
<path d="M159.7 161.867C160.58 164.119 174.607 181.371 186.627 177.246C191.676 175.512 184.991 155.938 184.991 155.938L186.62 134.266L157.87 121.363C157.87 121.363 159.314 160.915 159.7 161.867Z" fill="white"/>
<path d="M186.589 134.243L185.045 155.295C181.903 155.249 167.821 153.925 158.465 136.24C158.156 128.19 157.901 121.371 157.901 121.371L186.589 134.243Z" fill="#263238"/>
<path d="M209.147 99.6681C222.525 132.671 204.322 144.428 197.219 147.316C190.773 149.932 168.485 158.028 151.779 126.588C135.073 95.1479 146.151 78.4682 160.58 71.7034C175.009 64.9387 195.776 66.657 209.147 99.6681Z" fill="white"/>
<path d="M154.227 131.58C160.441 125.318 157.924 117.331 157.924 117.331C162.911 112.572 166.545 106.57 168.454 99.939C168.454 100.713 168.671 106.371 168.671 109.227C188.743 97.3848 189.43 78.4605 189.43 78.4605C198.925 82.911 201.928 86.8738 203.743 88.7314C203.743 88.7314 199.111 75.4419 189.136 69.0409C176.916 61.208 166.324 67.3845 166.324 67.3845C160.543 68.0224 155.04 70.2118 150.397 73.7222C145.753 77.2325 142.139 81.9337 139.937 87.3305C131.476 107.679 154.227 131.58 154.227 131.58Z" fill="#263238"/>
<path d="M183.732 99.7376C180.961 102.887 177.737 105.606 174.167 107.803C174.167 107.803 174.113 107.803 174.167 107.756C179.625 103.908 183.903 98.6082 186.519 92.4543C187.632 89.8306 188.41 87.0766 188.835 84.2576C189.275 81.3087 189.507 77.9031 188.727 74.9696C188.721 74.9268 188.731 74.8834 188.755 74.8474C188.779 74.8113 188.815 74.7852 188.856 74.7739C188.898 74.7625 188.942 74.7667 188.981 74.7856C189.02 74.8045 189.05 74.8369 189.067 74.8768C189.893 77.9728 190.611 80.7824 190.433 83.9945C190.226 87.0706 189.456 90.0824 188.164 92.88C187.015 95.3562 185.524 97.6572 183.732 99.7144" fill="#263238"/>
<path d="M159.337 125.117C159.337 125.117 148.653 116.781 144.669 120.922C140.686 125.063 150.992 138.724 157.284 139.096C158.087 139.198 158.904 139.135 159.683 138.913C160.462 138.691 161.188 138.312 161.818 137.801C162.448 137.29 162.968 136.656 163.346 135.938C163.725 135.22 163.956 134.433 164.023 133.623L159.337 125.117Z" fill="white"/>
<path d="M147.711 124.769C147.618 124.769 147.641 124.924 147.711 124.931C152.165 125.311 155.377 128.345 158.017 131.712C156.38 130.605 154.535 130.295 153.007 132.308C152.922 132.416 153.069 132.548 153.177 132.486C153.804 132.048 154.553 131.816 155.317 131.823C156.082 131.83 156.826 132.075 157.446 132.524C158.477 133.277 159.424 134.138 160.271 135.094C160.572 135.396 161.151 135.009 160.889 134.637L160.827 134.56C159.391 129.467 153.292 123.6 147.711 124.769Z" fill="#263238"/>
<path d="M199.844 98.1278C199.05 98.3224 198.246 98.4749 197.435 98.5845C196.509 98.747 195.791 98.9792 194.895 98.5845C194.652 98.4476 194.461 98.233 194.354 97.975C194.246 97.7169 194.227 97.4301 194.301 97.1603C194.679 96.0225 195.76 95.5426 196.864 95.295C197.971 95.0104 199.144 95.1512 200.153 95.6897C200.374 95.825 200.551 96.0215 200.664 96.2556C200.776 96.4897 200.818 96.7513 200.786 97.009C200.753 97.2666 200.647 97.5094 200.48 97.7079C200.313 97.9064 200.092 98.0522 199.844 98.1278Z" fill="#263238"/>
<path d="M177.603 106.471C178.298 106.042 178.97 105.577 179.618 105.078C180.39 104.536 181.054 104.18 181.409 103.259C181.478 102.989 181.458 102.704 181.35 102.447C181.243 102.19 181.055 101.975 180.814 101.835C179.741 101.309 178.637 101.735 177.68 102.354C176.705 102.946 175.982 103.877 175.65 104.97C175.587 105.224 175.6 105.491 175.686 105.738C175.773 105.985 175.929 106.202 176.136 106.361C176.344 106.52 176.593 106.616 176.853 106.635C177.114 106.655 177.374 106.598 177.603 106.471Z" fill="#263238"/>
<path d="M191.283 129.56C191.985 129.962 192.742 130.566 193.599 130.411C194.462 130.166 195.264 129.741 195.953 129.165C195.967 129.155 195.985 129.149 196.002 129.149C196.02 129.149 196.037 129.154 196.052 129.165C196.066 129.175 196.077 129.189 196.083 129.206C196.089 129.223 196.089 129.241 196.084 129.258C195.873 129.806 195.518 130.287 195.055 130.648C194.593 131.009 194.041 131.238 193.46 131.309C192.955 131.313 192.46 131.168 192.036 130.893C191.612 130.618 191.278 130.224 191.074 129.761C191.012 129.599 191.182 129.506 191.283 129.56Z" fill="#263238"/>
<path d="M198.169 118.105C198.169 118.105 199.767 121.386 200.292 123.004C200.338 123.159 199.975 123.36 199.435 123.569C199.435 123.569 199.396 123.569 199.373 123.569C198.067 124.276 196.592 124.609 195.109 124.532C193.627 124.456 192.193 123.973 190.966 123.136C190.804 123.012 190.966 122.78 191.136 122.826C193.776 123.701 196.27 123.337 198.81 122.547C198.81 122.06 195.899 117.021 196.146 116.913C197.011 116.549 198.948 116.58 200.091 116.549C197.003 109.583 192.772 103.236 189.769 96.2856C189.661 96.038 190.009 95.8367 190.155 96.0457C195.034 102.416 198.794 110.311 202.199 117.393C202.631 118.29 198.91 118.167 198.169 118.105Z" fill="#263238"/>
<path d="M199.072 123.02C198.605 124.641 197.73 126.114 196.532 127.3C195.859 127.919 195.013 128.316 194.108 128.438C192.116 128.67 191.421 127.037 191.198 125.489C191.083 124.663 191.067 123.826 191.151 122.996C193.721 123.854 196.497 123.862 199.072 123.02Z" fill="#263238"/>
<path d="M196.54 127.3C195.867 127.919 195.021 128.316 194.116 128.438C192.124 128.67 191.429 127.037 191.205 125.489C193.213 124.924 195.637 125.481 196.54 127.3Z" fill="#C1C1C1"/>
<path d="M180.413 113.383C180.355 113.657 180.251 113.919 180.104 114.157C179.994 114.357 179.842 114.53 179.658 114.664C179.473 114.798 179.262 114.889 179.039 114.931C177.649 115.233 176.615 114.026 176.074 112.671C176.036 112.578 176.074 112.501 176.151 112.555C176.923 113.066 177.834 113.577 178.568 113.198C179.049 112.848 179.413 112.359 179.61 111.797C179.818 112.354 180.087 112.886 180.413 113.383Z" fill="#263238"/>
<path d="M179.61 113.252C179.469 112.601 179.509 111.923 179.726 111.293C179.86 110.955 180.062 110.648 180.32 110.391C180.578 110.134 180.885 109.933 181.223 109.8C181.574 109.671 181.951 109.627 182.322 109.67C182.693 109.713 183.049 109.842 183.362 110.047C183.897 110.418 184.338 110.908 184.651 111.479C184.841 111.816 185.004 112.168 185.137 112.532C185.436 113.286 185.553 114.1 185.477 114.908C185.302 114.35 185.066 113.813 184.775 113.306C184.52 112.844 184.228 112.404 183.902 111.99C183.238 111.146 182.358 110.558 181.586 110.899C180.814 111.239 180.428 112.067 180.475 113.151C180.551 114.274 180.74 115.386 181.038 116.472C180.316 115.526 179.827 114.423 179.61 113.252Z" fill="#263238"/>
<path d="M201.512 104.359C201.743 104.531 202.005 104.66 202.284 104.738C202.498 104.816 202.727 104.845 202.954 104.823C203.18 104.802 203.4 104.73 203.596 104.614C204.831 103.902 204.793 102.292 204.291 100.945C204.291 100.845 204.183 100.806 204.152 100.945C203.912 101.858 203.588 102.834 202.785 103.043C202.195 103.109 201.599 102.99 201.079 102.702C201.282 103.237 201.427 103.792 201.512 104.359Z" fill="#263238"/>
<path d="M202.021 103.716C201.689 103.143 201.209 102.67 200.631 102.346C200.305 102.184 199.949 102.09 199.585 102.071C199.221 102.053 198.857 102.109 198.516 102.238C198.169 102.377 197.86 102.595 197.613 102.876C197.366 103.157 197.189 103.493 197.096 103.855C196.945 104.489 196.945 105.149 197.096 105.783C197.183 106.162 197.299 106.535 197.443 106.897C197.724 107.656 198.179 108.337 198.771 108.886C198.531 108.355 198.347 107.8 198.223 107.23C198.11 106.72 198.033 106.203 197.991 105.682C197.929 104.606 198.176 103.584 198.956 103.36C199.736 103.136 200.601 103.453 201.272 104.289C201.965 105.173 202.568 106.125 203.071 107.129C202.997 105.924 202.637 104.754 202.021 103.716Z" fill="#263238"/>
<path d="M203.743 88.7469C211.37 100.837 218.604 122.161 210.776 135.442C208.158 140.179 204.252 144.583 199.08 146.464C201.559 145.362 203.784 143.76 205.619 141.758C208.367 138.778 210.504 135.286 211.91 131.479C212.355 130.218 212.703 128.924 212.953 127.609C214.859 114.451 209.934 100.233 203.743 88.7469Z" fill="#263238"/>
<path d="M221.939 350.668L220.395 350.521C220.433 350.189 223.637 316.752 223.637 297.386C223.637 283.609 214.605 267.254 202.106 244.63C197.165 235.675 191.56 225.528 185.894 214.352C168.593 180.195 159.221 158.461 153.57 139.328L155.045 138.894C160.68 157.896 170.022 179.568 187.276 213.624C192.927 224.77 198.524 234.901 203.488 243.81C216.102 266.643 225.212 283.137 225.212 297.317C225.181 316.821 221.97 350.336 221.939 350.668Z" fill="#263238"/>
<path d="M161.954 124.343C165.737 132.656 162.912 142.083 155.639 145.411C148.367 148.74 139.427 144.692 135.629 136.387C131.831 128.082 134.679 118.654 141.944 115.326C149.209 111.998 158.156 116.038 161.954 124.343Z" fill="#365CD9"/>
<path d="M150.56 158.964C160.109 159.328 161.082 190.218 159.576 199.816C158.071 209.413 141.203 222.641 130.094 221.743C116.707 220.66 137.065 158.446 150.56 158.964Z" fill="white"/>
<path d="M135.428 172.695C108.069 212.347 91.6868 250.172 96.7588 260.451C104.579 276.287 135.436 285.01 166.447 293.818C172.623 295.583 194.942 245.59 188.279 243.826C175.047 240.312 143.094 236.086 142.245 234.87C141.527 233.864 150.737 204.398 154.497 182.943C160.21 150.272 147.703 154.908 135.428 172.695Z" fill="white"/>
<path d="M184.311 243.353C184.311 243.353 207.139 245.884 218.712 248.934C234.206 253.013 244.821 259.445 249.476 263.895C259.188 273.183 283.035 292.495 275.5 298.896C268.683 304.685 245.963 283.857 245.963 283.857C245.963 283.857 267.394 312.495 257.906 317.967C248.418 323.439 231.913 286.69 231.913 286.69C231.913 286.69 253.274 316.62 242.597 320.746C234.53 323.842 217.716 291.396 217.716 291.396C217.716 291.396 235.896 317.247 227.752 320.808C218.735 324.678 201.342 295.745 201.342 295.745C179.093 301.225 166.27 294.701 157.701 288.973C155.608 287.518 184.311 243.353 184.311 243.353Z" fill="white"/>
<path d="M239.216 273.47C241.856 276.744 244.551 280.041 246.89 283.532C249.229 287.023 251.444 290.614 253.452 294.314C258.369 303.393 260.029 309.848 259.882 309.453C256.432 300.297 248.248 287.642 245.909 284.143C243.57 280.645 241.416 277.038 239.085 273.547C238.992 273.47 239.123 273.392 239.216 273.47Z" fill="#263238"/>
<path d="M226.432 281.736C229.62 286.063 232.947 290.25 235.943 294.716C238.938 299.182 241.347 303.64 244.041 308.284C244.249 308.64 243.987 308.64 243.771 308.284C240.914 303.756 237.927 299.77 235.024 295.289C232.121 290.807 229.381 286.179 226.324 281.806C226.277 281.736 226.385 281.643 226.432 281.736Z" fill="#263238"/>
<path d="M214.219 286.806C219.43 293.168 223.483 300.49 227.25 307.766C227.443 308.122 227.103 308.075 226.895 307.719C222.687 300.668 219.445 295.111 214.002 286.984C213.918 286.86 214.111 286.674 214.219 286.806Z" fill="#263238"/>
<path d="M147.008 215.753C148.599 207.362 150.807 199.011 153.184 190.791C151.778 199.26 149.713 207.606 147.008 215.753Z" fill="#263238"/>
<path d="M153.979 192.726C153.765 194.925 152.834 196.992 151.332 198.608C152.173 196.581 152.976 194.677 153.979 192.726Z" fill="#263238"/>
<path d="M16.5094 357.712C120.614 357.24 237.386 357.232 341.521 357.712C237.417 358.192 120.645 358.184 16.5094 357.712Z" fill="#263238"/>
<path d="M331.702 347.534H26.2984V357.712H331.702V347.534Z" fill="#365CD9"/>
<path opacity="0.2" d="M331.702 347.534H26.2984V357.712H331.702V347.534Z" fill="black"/>
<path d="M336.364 330.668H21.6278V347.534H336.364V330.668Z" fill="#365CD9"/>
<path d="M316.748 322.464H41.252L21.6278 330.668H336.372L316.748 322.464Z" fill="#365CD9"/>
<path d="M321.38 334.445H234.368V359.577H321.38V334.445Z" fill="#365CD9"/>
<path d="M314.293 342.735C314.281 343.026 314.184 343.308 314.013 343.544C313.843 343.78 313.607 343.961 313.335 344.064C313.063 344.166 312.766 344.187 312.483 344.122C312.199 344.057 311.941 343.91 311.74 343.699C311.539 343.488 311.405 343.223 311.353 342.936C311.302 342.649 311.336 342.353 311.451 342.086C311.565 341.818 311.756 341.59 312 341.43C312.243 341.27 312.528 341.186 312.818 341.187C313.017 341.189 313.214 341.231 313.397 341.31C313.579 341.389 313.744 341.505 313.882 341.649C314.019 341.793 314.126 341.964 314.197 342.15C314.268 342.337 314.3 342.536 314.293 342.735Z" fill="#263238"/>
<path d="M314.293 351.063C314.281 351.354 314.184 351.636 314.013 351.872C313.843 352.108 313.607 352.289 313.335 352.392C313.063 352.495 312.766 352.515 312.483 352.45C312.199 352.385 311.941 352.238 311.74 352.028C311.539 351.817 311.405 351.551 311.353 351.264C311.302 350.977 311.336 350.682 311.451 350.414C311.565 350.146 311.756 349.918 312 349.758C312.243 349.598 312.528 349.514 312.818 349.515C313.017 349.517 313.214 349.559 313.397 349.638C313.579 349.718 313.744 349.833 313.882 349.977C314.019 350.121 314.126 350.292 314.197 350.478C314.268 350.665 314.3 350.864 314.293 351.063Z" fill="#263238"/>
<path d="M305.454 342.735C305.44 343.024 305.342 343.303 305.172 343.536C305.002 343.77 304.767 343.949 304.497 344.05C304.227 344.151 303.932 344.171 303.651 344.106C303.37 344.042 303.114 343.895 302.914 343.686C302.715 343.477 302.581 343.214 302.53 342.929C302.478 342.644 302.511 342.351 302.625 342.085C302.738 341.818 302.927 341.592 303.168 341.432C303.408 341.272 303.69 341.187 303.979 341.187C304.178 341.189 304.375 341.231 304.557 341.31C304.74 341.389 304.905 341.505 305.042 341.649C305.18 341.793 305.287 341.964 305.357 342.15C305.428 342.337 305.461 342.536 305.454 342.735Z" fill="#263238"/>
<path opacity="0.2" d="M307.059 351.063C307.046 351.672 306.853 352.264 306.505 352.764C306.158 353.264 305.671 353.65 305.106 353.873C304.54 354.097 303.922 354.148 303.327 354.021C302.733 353.894 302.189 353.594 301.764 353.158C301.339 352.723 301.052 352.171 300.939 351.572C300.825 350.974 300.89 350.355 301.126 349.793C301.361 349.231 301.757 348.752 302.263 348.415C302.769 348.078 303.364 347.898 303.971 347.897C304.799 347.908 305.589 348.247 306.168 348.84C306.747 349.434 307.068 350.233 307.059 351.063Z" fill="black"/>
<path d="M305.454 351.063C305.44 351.352 305.342 351.631 305.172 351.865C305.002 352.098 304.767 352.277 304.497 352.378C304.227 352.48 303.932 352.499 303.651 352.434C303.37 352.37 303.114 352.224 302.914 352.014C302.715 351.805 302.581 351.542 302.53 351.257C302.478 350.973 302.511 350.679 302.625 350.413C302.738 350.147 302.927 349.92 303.168 349.76C303.408 349.601 303.69 349.515 303.979 349.515C304.178 349.517 304.375 349.559 304.557 349.638C304.74 349.718 304.905 349.833 305.042 349.977C305.18 350.121 305.287 350.292 305.357 350.478C305.428 350.665 305.461 350.864 305.454 351.063Z" fill="#263238"/>
<path d="M296.622 342.735C296.61 343.026 296.513 343.307 296.343 343.543C296.173 343.779 295.937 343.96 295.665 344.063C295.394 344.166 295.098 344.187 294.814 344.123C294.531 344.058 294.273 343.912 294.072 343.702C293.871 343.492 293.735 343.227 293.683 342.941C293.631 342.654 293.663 342.359 293.777 342.091C293.891 341.823 294.081 341.594 294.323 341.434C294.565 341.273 294.849 341.187 295.14 341.187C295.339 341.189 295.536 341.231 295.719 341.31C295.902 341.389 296.067 341.504 296.205 341.649C296.343 341.793 296.451 341.963 296.523 342.15C296.594 342.336 296.628 342.535 296.622 342.735Z" fill="#263238"/>
<path d="M296.622 351.063C296.61 351.354 296.513 351.635 296.343 351.871C296.173 352.107 295.937 352.288 295.665 352.391C295.394 352.494 295.098 352.515 294.814 352.451C294.531 352.387 294.273 352.24 294.072 352.03C293.871 351.82 293.735 351.556 293.683 351.269C293.631 350.983 293.663 350.687 293.777 350.419C293.891 350.151 294.081 349.923 294.323 349.762C294.565 349.601 294.849 349.515 295.14 349.515C295.339 349.517 295.536 349.559 295.719 349.638C295.902 349.717 296.067 349.833 296.205 349.977C296.343 350.121 296.451 350.291 296.523 350.478C296.594 350.664 296.628 350.863 296.622 351.063Z" fill="#263238"/>
<path opacity="0.2" d="M285.366 342.735C285.352 343.344 285.16 343.936 284.812 344.436C284.465 344.935 283.978 345.321 283.413 345.545C282.847 345.769 282.229 345.82 281.634 345.693C281.04 345.566 280.496 345.266 280.071 344.83C279.646 344.394 279.359 343.843 279.245 343.244C279.132 342.645 279.197 342.027 279.432 341.465C279.668 340.903 280.064 340.424 280.57 340.087C281.076 339.749 281.67 339.569 282.278 339.569C282.69 339.569 283.097 339.651 283.476 339.811C283.855 339.971 284.199 340.206 284.487 340.501C284.774 340.795 285 341.145 285.151 341.529C285.302 341.912 285.375 342.322 285.366 342.735Z" fill="black"/>
<path d="M283.768 342.735C283.756 343.026 283.659 343.307 283.489 343.543C283.319 343.779 283.083 343.96 282.812 344.063C282.54 344.166 282.244 344.187 281.961 344.123C281.677 344.058 281.419 343.912 281.218 343.702C281.017 343.492 280.882 343.227 280.829 342.941C280.777 342.654 280.81 342.359 280.923 342.091C281.037 341.823 281.227 341.594 281.469 341.434C281.711 341.273 281.995 341.187 282.286 341.187C282.485 341.189 282.682 341.231 282.865 341.31C283.048 341.389 283.214 341.504 283.352 341.649C283.49 341.793 283.598 341.963 283.669 342.15C283.741 342.336 283.774 342.535 283.768 342.735Z" fill="#263238"/>
<path d="M283.768 351.063C283.756 351.354 283.659 351.635 283.489 351.871C283.319 352.107 283.083 352.288 282.812 352.391C282.54 352.494 282.244 352.515 281.961 352.451C281.677 352.387 281.419 352.24 281.218 352.03C281.017 351.82 280.882 351.556 280.829 351.269C280.777 350.983 280.81 350.687 280.923 350.419C281.037 350.151 281.227 349.923 281.469 349.762C281.711 349.601 281.995 349.515 282.286 349.515C282.485 349.517 282.682 349.559 282.865 349.638C283.048 349.717 283.214 349.833 283.352 349.977C283.49 350.121 283.598 350.291 283.669 350.478C283.741 350.664 283.774 350.863 283.768 351.063Z" fill="#263238"/>
<path opacity="0.2" d="M276.534 342.735C276.521 343.344 276.328 343.936 275.981 344.436C275.633 344.935 275.146 345.321 274.581 345.545C274.016 345.769 273.397 345.82 272.803 345.693C272.208 345.566 271.665 345.266 271.24 344.83C270.815 344.394 270.527 343.843 270.414 343.244C270.3 342.645 270.365 342.027 270.601 341.465C270.836 340.903 271.232 340.424 271.738 340.087C272.245 339.749 272.839 339.569 273.446 339.569C274.274 339.579 275.064 339.918 275.643 340.512C276.222 341.105 276.543 341.905 276.534 342.735Z" fill="black"/>
<path d="M274.929 342.735C274.917 343.026 274.819 343.307 274.649 343.543C274.479 343.779 274.244 343.96 273.972 344.063C273.701 344.166 273.405 344.187 273.121 344.123C272.838 344.058 272.58 343.912 272.378 343.702C272.177 343.492 272.042 343.227 271.99 342.941C271.937 342.654 271.97 342.359 272.084 342.091C272.198 341.823 272.388 341.594 272.63 341.434C272.872 341.273 273.156 341.187 273.446 341.187C273.646 341.189 273.843 341.231 274.026 341.31C274.209 341.389 274.374 341.504 274.512 341.649C274.65 341.793 274.758 341.963 274.83 342.15C274.901 342.336 274.935 342.535 274.929 342.735Z" fill="#263238"/>
<path d="M274.929 351.063C274.917 351.354 274.819 351.635 274.649 351.871C274.479 352.107 274.244 352.288 273.972 352.391C273.701 352.494 273.405 352.515 273.121 352.451C272.838 352.387 272.58 352.24 272.378 352.03C272.177 351.82 272.042 351.556 271.99 351.269C271.937 350.983 271.97 350.687 272.084 350.419C272.198 350.151 272.388 349.923 272.63 349.762C272.872 349.601 273.156 349.515 273.446 349.515C273.646 349.517 273.843 349.559 274.026 349.638C274.209 349.717 274.374 349.833 274.512 349.977C274.65 350.121 274.758 350.291 274.83 350.478C274.901 350.664 274.935 350.863 274.929 351.063Z" fill="#263238"/>
<path d="M239.71 341.21H258.292V339.097H239.71V341.21Z" fill="#263238"/>
<path d="M239.71 345.908H258.292V343.795H239.71V345.908Z" fill="#263238"/>
<path d="M239.71 350.599H258.292V348.486H239.71V350.599Z" fill="#263238"/>
<path d="M129.16 326.496H42.1707L46.409 321.566H124.921L129.16 326.496Z" fill="#365CD9"/>
<path d="M129.16 326.496C129.16 325.722 109.69 325.15 85.6652 325.15C61.6406 325.15 42.1707 325.753 42.1707 326.496C42.1707 327.239 61.6406 327.843 85.6652 327.843C109.69 327.843 129.16 327.239 129.16 326.496Z" fill="#365CD9"/>
<g opacity="0.2">
<path d="M129.16 326.496H42.1707L46.409 321.566H124.921L129.16 326.496Z" fill="black"/>
<path d="M129.16 326.496C129.16 325.722 109.69 325.15 85.6652 325.15C61.6406 325.15 42.1707 325.753 42.1707 326.496C42.1707 327.239 61.6406 327.843 85.6652 327.843C109.69 327.843 129.16 327.239 129.16 326.496Z" fill="black"/>
</g>
<path d="M85.6652 322.913C107.346 322.913 124.921 322.31 124.921 321.566C124.921 320.822 107.346 320.219 85.6652 320.219C63.9846 320.219 46.409 320.822 46.409 321.566C46.409 322.31 63.9846 322.913 85.6652 322.913Z" fill="#365CD9"/>
<path d="M315.829 326.496H228.84L233.079 321.566H311.591L315.829 326.496Z" fill="#365CD9"/>
<path d="M315.829 326.496C315.829 325.722 296.359 325.15 272.335 325.15C248.31 325.15 228.84 325.753 228.84 326.496C228.84 327.239 248.31 327.843 272.335 327.843C296.359 327.843 315.829 327.239 315.829 326.496Z" fill="#365CD9"/>
<g opacity="0.2">
<path d="M315.829 326.496H228.84L233.079 321.566H311.591L315.829 326.496Z" fill="black"/>
<path d="M315.829 326.496C315.829 325.722 296.359 325.15 272.335 325.15C248.31 325.15 228.84 325.753 228.84 326.496C228.84 327.239 248.31 327.843 272.335 327.843C296.359 327.843 315.829 327.239 315.829 326.496Z" fill="black"/>
</g>
<path d="M272.335 322.913C294.015 322.913 311.591 322.31 311.591 321.566C311.591 320.822 294.015 320.219 272.335 320.219C250.654 320.219 233.079 320.822 233.079 321.566C233.079 322.31 250.654 322.913 272.335 322.913Z" fill="#365CD9"/>
<path d="M171.635 322.619H171.072V327.727H171.635V322.619Z" fill="#263238"/>
<path d="M181.254 322.619H180.691V327.727H181.254V322.619Z" fill="#263238"/>
<path d="M143.071 322.959H136.077L136.416 317.959H142.731L143.071 322.959Z" fill="#263238"/>
<path d="M143.071 322.959C143.071 322.557 141.527 322.232 139.574 322.232C137.621 322.232 136.077 322.557 136.077 322.959C136.077 323.362 137.621 323.695 139.574 323.695C141.527 323.695 143.071 323.369 143.071 322.959Z" fill="#263238"/>
<path d="M142.716 317.959C142.716 317.75 141.303 317.572 139.559 317.572C137.814 317.572 136.401 317.75 136.401 317.959C136.401 318.168 137.814 318.346 139.559 318.346C141.303 318.346 142.716 318.176 142.716 317.959Z" fill="#2946A6"/>
<path d="M153.169 322.959H146.175L146.514 317.959H152.829L153.169 322.959Z" fill="#263238"/>
<path d="M153.169 322.959C153.169 322.557 151.625 322.232 149.672 322.232C147.719 322.232 146.175 322.557 146.175 322.959C146.175 323.362 147.719 323.695 149.672 323.695C151.625 323.695 153.169 323.369 153.169 322.959Z" fill="#263238"/>
<path d="M152.829 317.959C152.829 317.75 151.416 317.572 149.672 317.572C147.927 317.572 146.514 317.75 146.514 317.959C146.514 318.168 147.927 318.346 149.672 318.346C151.416 318.346 152.829 318.176 152.829 317.959Z" fill="#2946A6"/>
<path d="M163.267 322.959H156.272L156.612 317.959H162.927L163.267 322.959Z" fill="#263238"/>
<path d="M163.267 322.959C163.267 322.557 161.723 322.232 159.769 322.232C157.816 322.232 156.272 322.557 156.272 322.959C156.272 323.362 157.816 323.695 159.769 323.695C161.723 323.695 163.267 323.369 163.267 322.959Z" fill="#263238"/>
<path d="M162.927 317.959C162.927 317.75 161.514 317.572 159.769 317.572C158.025 317.572 156.612 317.75 156.612 317.959C156.612 318.168 158.025 318.346 159.769 318.346C161.514 318.346 162.927 318.176 162.927 317.959Z" fill="#2946A6"/>
<path d="M193.753 323.068H189.214L189.43 318.068H193.529L193.753 323.068Z" fill="#263238"/>
<path d="M191.483 323.803C192.737 323.803 193.753 323.474 193.753 323.068C193.753 322.661 192.737 322.332 191.483 322.332C190.23 322.332 189.214 322.661 189.214 323.068C189.214 323.474 190.23 323.803 191.483 323.803Z" fill="#263238"/>
<path d="M193.529 318.068C193.529 317.851 192.61 317.681 191.483 317.681C190.356 317.681 189.43 317.851 189.43 318.068C189.43 318.284 190.348 318.455 191.483 318.455C192.618 318.455 193.529 318.277 193.529 318.068Z" fill="#2946A6"/>
<path d="M202.963 323.068H198.424L198.64 318.068H202.739L202.963 323.068Z" fill="#263238"/>
<path d="M202.932 323.068C202.932 322.665 201.913 322.332 200.662 322.332C199.412 322.332 198.393 322.665 198.393 323.068C198.393 323.47 199.404 323.795 200.662 323.795C201.921 323.795 202.932 323.47 202.932 323.068Z" fill="#263238"/>
<path d="M202.739 318.068C202.739 317.851 201.82 317.681 200.693 317.681C199.566 317.681 198.64 317.851 198.64 318.068C198.64 318.284 199.558 318.455 200.693 318.455C201.828 318.455 202.739 318.277 202.739 318.068Z" fill="#2946A6"/>
<path d="M212.173 323.068H207.633L207.857 318.068H211.957L212.173 323.068Z" fill="#263238"/>
<path d="M209.903 323.803C211.157 323.803 212.173 323.474 212.173 323.068C212.173 322.661 211.157 322.332 209.903 322.332C208.65 322.332 207.633 322.661 207.633 323.068C207.633 323.474 208.65 323.803 209.903 323.803Z" fill="#263238"/>
<path d="M211.957 318.068C211.957 317.851 211.038 317.681 209.903 317.681C208.768 317.681 207.857 317.851 207.857 318.068C207.857 318.284 208.776 318.455 209.903 318.455C211.03 318.455 211.957 318.277 211.957 318.068Z" fill="#2946A6"/>
<path d="M221.391 323.068H216.843L217.067 318.068H221.167L221.391 323.068Z" fill="#263238"/>
<path d="M219.121 323.803C220.374 323.803 221.391 323.474 221.391 323.068C221.391 322.661 220.374 322.332 219.121 322.332C217.867 322.332 216.851 322.661 216.851 323.068C216.851 323.474 217.867 323.803 219.121 323.803Z" fill="#263238"/>
<path d="M221.167 318.068C221.167 317.851 220.248 317.681 219.121 317.681C217.994 317.681 217.067 317.851 217.067 318.068C217.067 318.284 217.986 318.455 219.121 318.455C220.256 318.455 221.167 318.277 221.167 318.068Z" fill="#2946A6"/>
<path d="M192.935 326.303H188.071L188.31 320.947H192.695L192.935 326.303Z" fill="#263238"/>
<path d="M192.935 326.303C192.935 325.869 191.846 325.529 190.503 325.529C189.16 325.529 188.071 325.877 188.071 326.303C188.071 326.729 189.16 327.077 190.503 327.077C191.846 327.077 192.935 326.736 192.935 326.303Z" fill="#263238"/>
<path d="M192.695 320.947C192.695 320.722 191.715 320.537 190.503 320.537C189.291 320.537 188.31 320.722 188.31 320.947C188.31 321.171 189.291 321.365 190.503 321.365C191.715 321.365 192.695 321.21 192.695 320.947Z" fill="#2946A6"/>
<path d="M202.801 326.303H197.937L198.169 320.947H202.561L202.801 326.303Z" fill="#263238"/>
<path d="M202.801 326.303C202.801 325.869 201.712 325.529 200.369 325.529C199.026 325.529 197.937 325.877 197.937 326.303C197.937 326.729 199.026 327.077 200.369 327.077C201.712 327.077 202.801 326.736 202.801 326.303Z" fill="#263238"/>
<path d="M202.561 320.947C202.561 320.722 201.581 320.537 200.369 320.537C199.157 320.537 198.169 320.722 198.169 320.947C198.169 321.171 199.157 321.365 200.369 321.365C201.581 321.365 202.561 321.21 202.561 320.947Z" fill="#2946A6"/>
<path d="M212.659 326.303H207.803L208.035 320.947H212.428L212.659 326.303Z" fill="#263238"/>
<path d="M212.659 326.303C212.659 325.869 211.571 325.529 210.227 325.529C208.884 325.529 207.803 325.877 207.803 326.303C207.803 326.729 208.884 327.077 210.227 327.077C211.571 327.077 212.659 326.736 212.659 326.303Z" fill="#263238"/>
<path d="M212.428 320.947C212.428 320.722 211.439 320.537 210.227 320.537C209.015 320.537 208.035 320.722 208.035 320.947C208.035 321.171 209.015 321.365 210.227 321.365C211.439 321.365 212.428 321.21 212.428 320.947Z" fill="#2946A6"/>
<path d="M222.525 326.303H217.662L217.901 320.947H222.286L222.525 326.303Z" fill="#263238"/>
<path d="M222.525 326.303C222.525 325.869 221.437 325.529 220.094 325.529C218.75 325.529 217.662 325.877 217.662 326.303C217.662 326.729 218.75 327.077 220.094 327.077C221.437 327.077 222.525 326.736 222.525 326.303Z" fill="#263238"/>
<path d="M222.286 320.947C222.286 320.722 221.306 320.537 220.094 320.537C218.882 320.537 217.901 320.722 217.901 320.947C217.901 321.171 218.882 321.365 220.094 321.365C221.306 321.365 222.286 321.21 222.286 320.947Z" fill="#2946A6"/>
<path d="M142.77 326.326H135.475L135.83 321.109H142.415L142.77 326.326Z" fill="#263238"/>
<path d="M142.77 326.326C142.77 325.9 141.133 325.552 139.118 325.552C137.104 325.552 135.475 325.893 135.475 326.326C135.475 326.76 137.104 327.1 139.118 327.1C141.133 327.1 142.77 326.744 142.77 326.326Z" fill="#263238"/>
<path d="M142.415 321.109C142.415 320.885 140.94 320.707 139.118 320.707C137.297 320.707 135.83 320.885 135.83 321.109C135.83 321.334 137.304 321.512 139.118 321.512C140.933 321.512 142.415 321.334 142.415 321.109Z" fill="#2946A6"/>
<path d="M153.316 326.326H146.02L146.383 321.109H152.96L153.316 326.326Z" fill="#263238"/>
<path d="M153.316 326.326C153.316 325.9 151.687 325.552 149.672 325.552C147.657 325.552 146.028 325.893 146.028 326.326C146.028 326.76 147.657 327.1 149.672 327.1C151.687 327.1 153.316 326.744 153.316 326.326Z" fill="#263238"/>
<path d="M152.96 321.109C152.96 320.885 151.486 320.707 149.672 320.707C147.858 320.707 146.383 320.885 146.383 321.109C146.383 321.334 147.85 321.512 149.672 321.512C151.494 321.512 152.96 321.334 152.96 321.109Z" fill="#2946A6"/>
<path d="M163.869 326.326H156.573L156.929 321.109H163.514L163.869 326.326Z" fill="#263238"/>
<path d="M163.869 326.326C163.869 325.9 162.232 325.552 160.225 325.552C158.218 325.552 156.573 325.893 156.573 326.326C156.573 326.76 158.21 327.1 160.225 327.1C162.24 327.1 163.869 326.744 163.869 326.326Z" fill="#263238"/>
<path d="M163.514 321.109C163.514 320.885 162.039 320.707 160.225 320.707C158.411 320.707 156.929 320.885 156.929 321.109C156.929 321.334 158.403 321.512 160.225 321.512C162.047 321.512 163.514 321.334 163.514 321.109Z" fill="#2946A6"/>
<path d="M174.962 324.631H167.752L167.32 327.092H175.395L174.962 324.631Z" fill="#263238"/>
<path d="M174.53 324.213H168.184L167.752 324.631H174.962L174.53 324.213Z" fill="#2946A6"/>
<path d="M184.582 322.696H177.371L176.939 325.157H185.014L184.582 322.696Z" fill="#263238"/>
<path d="M184.149 322.278H177.803L177.371 322.696H184.582L184.149 322.278Z" fill="#2946A6"/>
<path d="M45.004 335.142H30.3591V343.068H45.004V335.142Z" fill="#263238"/>
<path d="M65.5314 335.142H50.8866V343.068H65.5314V335.142Z" fill="#263238"/>
<path d="M216.897 335.436H141.095V336.736H216.897V335.436Z" fill="#263238"/>
<path d="M216.897 338.455H141.095V339.755H216.897V338.455Z" fill="#263238"/>
<path d="M216.897 341.466H141.095V342.766H216.897V341.466Z" fill="#263238"/>
<path d="M280.086 296.605L298.598 282.301L301.493 284.909L313.22 274.004L318.408 281.651L301.076 290.242L298.081 287.495L280.086 296.605Z" fill="#365CD9"/>
<path d="M273.624 302.363L294.113 313.64L296.576 310.622L309.839 319.585L313.791 311.225L295.348 305.413L292.808 308.594L273.624 302.363Z" fill="#365CD9"/>
<path d="M289.828 300.057L309.121 293.547L310.765 296.519L325.618 290.877L327.718 298.648L308.912 300.792L307.229 297.673L289.828 300.057Z" fill="#365CD9"/>
<path d="M282.155 121.789C281.973 122.784 281.502 123.703 280.8 124.43C280.098 125.157 279.197 125.658 278.21 125.872C277.224 126.085 276.196 126 275.258 125.628C274.319 125.256 273.512 124.613 272.938 123.781C272.364 122.949 272.049 121.965 272.032 120.953C272.016 119.942 272.299 118.948 272.846 118.098C273.393 117.248 274.179 116.579 275.105 116.176C276.031 115.774 277.055 115.656 278.048 115.837C278.707 115.957 279.337 116.206 279.9 116.571C280.463 116.935 280.95 117.407 281.331 117.96C281.713 118.512 281.982 119.135 282.123 119.792C282.264 120.449 282.275 121.128 282.155 121.789Z" fill="white"/>
<path d="M286.776 96.404L282.94 95.7037L278.345 121.008L282.18 121.708L286.776 96.404Z" fill="white"/>
<path d="M299.733 117.431C299.552 118.427 299.08 119.346 298.378 120.072C297.676 120.799 296.775 121.301 295.789 121.514C294.802 121.727 293.775 121.643 292.836 121.27C291.898 120.898 291.091 120.256 290.516 119.424C289.942 118.592 289.627 117.608 289.611 116.596C289.594 115.584 289.878 114.591 290.424 113.74C290.971 112.89 291.757 112.221 292.683 111.819C293.609 111.416 294.633 111.298 295.626 111.479C296.957 111.724 298.137 112.488 298.907 113.604C299.677 114.72 299.974 116.096 299.733 117.431Z" fill="white"/>
<path d="M304.354 92.0465L300.519 91.3463L295.923 116.65L299.759 117.35L304.354 92.0465Z" fill="white"/>
<path d="M304.334 92.1215L282.309 99.1107L282.927 95.7284L304.952 88.7391L304.334 92.1215Z" fill="white"/>
<path d="M303.176 98.4993L281.151 105.481L281.769 102.098L303.794 95.1169L303.176 98.4993Z" fill="white"/>
<path d="M63.339 293.532C63.1592 294.528 62.6888 295.448 61.9874 296.176C61.2859 296.904 60.3849 297.407 59.3983 297.621C58.4117 297.835 57.3838 297.751 56.4448 297.38C55.5057 297.008 54.6976 296.366 54.1228 295.534C53.5479 294.702 53.2321 293.718 53.2154 292.706C53.1986 291.694 53.4816 290.7 54.0285 289.849C54.5754 288.998 55.3618 288.329 56.288 287.927C57.2142 287.524 58.2387 287.406 59.2319 287.587C59.8912 287.707 60.5205 287.955 61.0838 288.319C61.6472 288.682 62.1335 289.154 62.515 289.706C62.8965 290.258 63.1656 290.88 63.307 291.536C63.4484 292.193 63.4592 292.871 63.339 293.532Z" fill="white"/>
<path d="M67.9624 268.173L64.1269 267.472L59.5312 292.776L63.3667 293.476L67.9624 268.173Z" fill="white"/>
<path d="M80.956 289.182C80.7748 290.177 80.3034 291.096 79.6013 291.823C78.8992 292.55 77.9979 293.051 77.0115 293.265C76.025 293.478 74.9976 293.393 74.0592 293.021C73.1208 292.649 72.3135 292.006 71.7394 291.174C71.1653 290.342 70.8501 289.358 70.8337 288.347C70.8174 287.335 71.1005 286.341 71.6474 285.491C72.1943 284.641 72.9803 283.972 73.9062 283.57C74.832 283.167 75.8561 283.049 76.849 283.23C77.5085 283.35 78.138 283.6 78.7014 283.964C79.2648 284.328 79.7511 284.8 80.1326 285.353C80.514 285.905 80.783 286.528 80.9243 287.185C81.0656 287.842 81.0764 288.521 80.956 289.182Z" fill="white"/>
<path d="M84.9525 262.894L81.1319 262.19L76.5142 287.396L80.3348 288.099L84.9525 262.894Z" fill="white"/>
<path d="M85.5185 263.872L63.5011 270.854L64.1109 267.471L86.1361 260.49L85.5185 263.872Z" fill="white"/>
<path d="M84.3605 270.25L62.3431 277.231L62.953 273.849L84.9781 266.868L84.3605 270.25Z" fill="white"/>
<path d="M44.0853 244.298C43.9041 245.293 43.4327 246.212 42.7306 246.939C42.0285 247.666 41.1272 248.167 40.1407 248.38C39.1543 248.594 38.1269 248.509 37.1885 248.137C36.2501 247.765 35.4428 247.122 34.8687 246.29C34.2946 245.458 33.9794 244.474 33.963 243.462C33.9466 242.451 34.2298 241.457 34.7767 240.607C35.3235 239.756 36.1096 239.088 37.0355 238.685C37.9613 238.283 38.9854 238.165 39.9782 238.346C41.3093 238.59 42.4893 239.354 43.2592 240.47C44.0291 241.586 44.3262 242.963 44.0853 244.298Z" fill="#365CD9"/>
<path d="M48.7093 218.932L44.8737 218.231L40.278 243.535L44.1136 244.236L48.7093 218.932Z" fill="#365CD9"/>
<path d="M62.9146 214.798L59.079 214.098L57.75 221.416L61.5855 222.116L62.9146 214.798Z" fill="#365CD9"/>
<path d="M62.7214 215.776L44.2397 221.619L44.8573 218.237L63.339 212.393L62.7214 215.776Z" fill="#365CD9"/>
<path d="M61.5634 222.153L43.0817 227.997L43.6993 224.615L62.181 218.771L61.5634 222.153Z" fill="#365CD9"/>
<path d="M304.79 217.757C304.609 218.752 304.137 219.672 303.435 220.398C302.733 221.125 301.832 221.627 300.845 221.84C299.859 222.053 298.831 221.968 297.893 221.596C296.955 221.224 296.147 220.581 295.573 219.749C294.999 218.917 294.684 217.933 294.667 216.922C294.651 215.91 294.934 214.916 295.481 214.066C296.028 213.216 296.814 212.547 297.74 212.145C298.666 211.742 299.69 211.624 300.683 211.805C301.342 211.925 301.972 212.175 302.535 212.539C303.098 212.903 303.585 213.375 303.966 213.928C304.348 214.481 304.617 215.103 304.758 215.76C304.899 216.417 304.91 217.096 304.79 217.757Z" fill="#365CD9"/>
<path d="M309.412 192.377L305.577 191.677L300.981 216.981L304.816 217.681L309.412 192.377Z" fill="#365CD9"/>
<path d="M322.186 187.791L318.365 187.088L317.03 194.377L320.851 195.081L322.186 187.791Z" fill="#365CD9"/>
<path d="M323.426 189.235L304.944 195.079L305.562 191.697L324.043 185.853L323.426 189.235Z" fill="#365CD9"/>
<path d="M322.268 195.613L303.786 201.457L304.404 198.074L322.885 192.231L322.268 195.613Z" fill="#365CD9"/>
<path d="M263.866 264.066C263.713 264.912 263.313 265.695 262.716 266.314C262.12 266.932 261.354 267.36 260.515 267.542C259.676 267.724 258.802 267.652 258.003 267.336C257.205 267.02 256.518 266.474 256.029 265.766C255.541 265.059 255.273 264.222 255.259 263.361C255.245 262.501 255.486 261.655 255.951 260.932C256.417 260.209 257.085 259.64 257.873 259.299C258.661 258.957 259.532 258.857 260.377 259.011C260.937 259.113 261.472 259.324 261.951 259.634C262.429 259.943 262.843 260.343 263.167 260.813C263.491 261.282 263.72 261.811 263.839 262.369C263.959 262.928 263.968 263.504 263.866 264.066Z" fill="white"/>
<path d="M267.807 242.497L264.549 241.902L260.643 263.406L263.901 264.001L267.807 242.497Z" fill="white"/>
<path d="M278.812 260.366C278.659 261.213 278.259 261.995 277.662 262.614C277.066 263.233 276.299 263.66 275.461 263.842C274.622 264.024 273.748 263.953 272.949 263.637C272.151 263.321 271.464 262.774 270.975 262.066C270.487 261.359 270.219 260.522 270.205 259.661C270.191 258.801 270.432 257.956 270.897 257.232C271.362 256.509 272.031 255.941 272.819 255.599C273.607 255.257 274.478 255.157 275.322 255.312C276.452 255.521 277.454 256.17 278.107 257.117C278.761 258.064 279.015 259.232 278.812 260.366Z" fill="white"/>
<path d="M282.698 238.836L279.439 238.24L275.53 259.744L278.788 260.339L282.698 238.836Z" fill="white"/>
<path d="M282.718 238.856L264.005 244.793L264.522 241.921L283.243 235.985L282.718 238.856Z" fill="white"/>
<path d="M281.738 244.274L263.017 250.211L263.542 247.34L282.255 241.403L281.738 244.274Z" fill="white"/>
<path d="M104.402 186.372C104.249 187.218 103.849 188.001 103.252 188.619C102.655 189.238 101.889 189.666 101.05 189.848C100.211 190.03 99.3373 189.958 98.5389 189.642C97.7405 189.326 97.0536 188.78 96.565 188.072C96.0765 187.364 95.8083 186.527 95.7944 185.667C95.7805 184.806 96.0214 183.961 96.4868 183.238C96.9522 182.515 97.6211 181.946 98.4088 181.604C99.1966 181.263 100.068 181.163 100.912 181.317C102.042 181.526 103.043 182.175 103.697 183.122C104.351 184.07 104.604 185.238 104.402 186.372Z" fill="#365CD9"/>
<path d="M108.331 164.809L105.072 164.214L101.167 185.718L104.425 186.313L108.331 164.809Z" fill="#365CD9"/>
<path d="M120.375 161.309L117.117 160.714L115.987 166.927L119.245 167.522L120.375 161.309Z" fill="#365CD9"/>
<path d="M120.235 162.13L104.533 167.099L105.058 164.227L120.76 159.258L120.235 162.13Z" fill="#365CD9"/>
<path d="M119.255 167.548L103.545 172.517L104.07 169.645L119.78 164.676L119.255 167.548Z" fill="#365CD9"/>
<path d="M254.834 140.195L252.44 128.879L241.671 126.89L252.402 124.25L254.834 113.6L257.265 124.25L267.988 126.882L257.227 128.879L254.834 140.195ZM245.392 126.781L253.112 128.213L254.857 136.456L256.601 128.213L264.321 126.773L256.601 124.893L254.818 117.075L253.035 124.893L245.392 126.781Z" fill="#263238"/>
<path d="M83.1022 251.07L92.3584 252.788L94.4197 262.564L96.4886 252.788L105.745 251.062L96.5272 248.81L94.4197 239.576L92.3198 248.81L83.1022 251.07Z" fill="#263238"/>
<path d="M240.598 224.197L245.77 225.157L246.921 230.621L248.079 225.157L253.251 224.197L248.102 222.935L246.921 217.773L245.747 222.935L240.598 224.197Z" fill="#263238"/>
<path d="M100.904 60.6429L99.43 53.6769L92.7444 52.4385L99.4068 50.7976L100.904 44.2186L102.41 50.7976L109.072 52.4308L102.387 53.6769L100.904 60.6429ZM96.396 52.2992L100.055 52.9803L100.881 56.9122L101.715 52.9803L105.374 52.2992L101.8 51.4091L100.943 47.6629L100.094 51.4091L96.396 52.2992Z" fill="#263238"/>
<path d="M296.992 188.585L295.51 181.619L288.825 180.381L295.487 178.748L296.992 172.169L298.49 178.748L305.153 180.381L298.475 181.619L296.992 188.585ZM292.484 180.241L296.136 180.923L296.969 184.854L297.803 180.923L301.455 180.241L297.826 179.351L296.969 175.605L296.112 179.351L292.484 180.241Z" fill="#263238"/>
<path d="M111.836 313.71L110.354 306.744L103.676 305.506L110.338 303.872L111.836 297.293L113.38 303.872L120.042 305.506L113.357 306.744L111.836 313.71ZM107.351 305.366L111.002 306.047L111.836 309.979L112.67 306.047L116.329 305.366L112.693 304.476L111.836 300.73L110.979 304.476L107.351 305.366Z" fill="#263238"/>
<path d="M275.307 81.4171L280.479 82.3691L281.637 87.8412L282.795 82.3691L287.96 81.4093L282.819 80.1477L281.637 74.9851L280.456 80.1477L275.307 81.4171Z" fill="#263238"/>
<path d="M54.6848 172.517L59.8495 173.477L61.0075 178.941L62.1655 173.477L67.3379 172.517L62.1887 171.255L61.0075 166.093L59.8341 171.255L54.6848 172.517Z" fill="#263238"/>
</g>
<defs>
<clipPath id="clip0_1_724">
<rect width="358" height="358" fill="white"/>
</clipPath>
</defs>
</svg>
